<svg id="Calque_1" data-name="Calque 1" xmlns="http://www.w3.org/2000/svg" viewBox="0 0 395.01 105"><g id="Rectangle_5" data-name="Rectangle 5"><path id="Tracé_138" data-name="Tracé 138" d="M153,368.46H443A52.5,52.5,0,0,1,495.46,421v0h0a52.5,52.5,0,0,1-52.5,52.5H153A52.5,52.5,0,0,1,100.45,421h0a52.49,52.49,0,0,1,52.46-52.54Z" transform="translate(-100.45 -368.46)" style="fill:none"/><path id="Tracé_139" data-name="Tracé 139" d="M443,473.46H153a52.5,52.5,0,0,1,0-105H443a52.5,52.5,0,0,1,0,105Zm-290-95a42.5,42.5,0,0,0,0,85H443a42.5,42.5,0,0,0,0-85Z" transform="translate(-100.45 -368.46)" style="fill:none"/></g><g id="Multisports"><g id="Groupe_19" data-name="Groupe 19"><path id="Tracé_140" data-name="Tracé 140" d="M154.64,425l-6.88-27.37v29.65a5.47,5.47,0,0,1-1.1,3.69,4,4,0,0,1-5.66.14l-.13-.14a5.33,5.33,0,0,1-1.11-3.71v-34c0-1.88.49-3.14,1.46-3.8a7.09,7.09,0,0,1,4-1h2.69a10.32,10.32,0,0,1,3.53.44,3,3,0,0,1,1.63,1.58,26.88,26.88,0,0,1,1.2,3.72l6.24,23.53,6.24-23.53a24.43,24.43,0,0,1,1.2-3.72,3,3,0,0,1,1.63-1.58,10.26,10.26,0,0,1,3.53-.44h2.69a7.13,7.13,0,0,1,4,1c1,.66,1.46,1.92,1.46,3.8v34a5.37,5.37,0,0,1-1.1,3.69,3.74,3.74,0,0,1-2.94,1.23,3.64,3.64,0,0,1-2.84-1.23,5.28,5.28,0,0,1-1.11-3.69V397.62l-7,27.38c-.45,1.77-.81,3.08-1.1,3.91a5.38,5.38,0,0,1-1.57,2.27,4.54,4.54,0,0,1-3.16,1,4.62,4.62,0,0,1-4.22-2.34,8.8,8.8,0,0,1-.92-2.27C155.1,426.75,154.88,425.88,154.64,425Z" transform="translate(-100.45 -368.46)" style="fill:#fff"/><path id="Tracé_141" data-name="Tracé 141" d="M210.33,427.68v-1a17.74,17.74,0,0,1-3,3,11.17,11.17,0,0,1-3.46,1.83,14.15,14.15,0,0,1-4.28.6,11,11,0,0,1-5.2-1.2,8.67,8.67,0,0,1-3.56-3.31,14.59,14.59,0,0,1-1.49-7.32V404.45a5.16,5.16,0,0,1,1.08-3.59,3.69,3.69,0,0,1,2.87-1.19,3.86,3.86,0,0,1,2.93,1.2,5.15,5.15,0,0,1,1.12,3.58v12.8a19.28,19.28,0,0,0,.46,4.67,5.55,5.55,0,0,0,1.69,3,4.74,4.74,0,0,0,3.3,1.07,6.66,6.66,0,0,0,3.8-1.2,7,7,0,0,0,2.61-3.13q.68-1.71.68-7.45v-9.72a5.1,5.1,0,0,1,1.11-3.58,3.76,3.76,0,0,1,2.9-1.2,3.72,3.72,0,0,1,2.87,1.19,5.21,5.21,0,0,1,1.08,3.59v23.17a5,5,0,0,1-1,3.43,3.71,3.71,0,0,1-5.39,0,4.8,4.8,0,0,1-1.12-3.37Z" transform="translate(-100.45 -368.46)" style="fill:#fff"/><path id="Tracé_142" data-name="Tracé 142" d="M225.8,427.33V392.64a5.32,5.32,0,0,1,1.07-3.63,3.64,3.64,0,0,1,2.89-1.23,3.83,3.83,0,0,1,2.93,1.21,5.29,5.29,0,0,1,1.11,3.65v34.69a5.27,5.27,0,0,1-1.13,3.65,3.77,3.77,0,0,1-2.91,1.21,3.59,3.59,0,0,1-2.86-1.26,5.24,5.24,0,0,1-1.1-3.6Z" transform="translate(-100.45 -368.46)" style="fill:#fff"/><path id="Tracé_143" data-name="Tracé 143" d="M242.5,400.38h.88v-4.81a23.14,23.14,0,0,1,.1-3,4.52,4.52,0,0,1,.57-1.89,3.67,3.67,0,0,1,1.35-1.33,3.86,3.86,0,0,1,2-.52,3.94,3.94,0,0,1,2.75,1.15,3.44,3.44,0,0,1,1,1.86,17.18,17.18,0,0,1,.22,3.12v5.45h2.93a3.74,3.74,0,0,1,2.59.8,2.68,2.68,0,0,1,.89,2.07,2.32,2.32,0,0,1-1.27,2.25,8.33,8.33,0,0,1-3.65.65h-1.49v14.7a21.43,21.43,0,0,0,.13,2.89,2.92,2.92,0,0,0,.7,1.64,2.35,2.35,0,0,0,1.86.63,9.52,9.52,0,0,0,1.91-.25,10.64,10.64,0,0,1,1.87-.25,2.43,2.43,0,0,1,1.75.78,2.69,2.69,0,0,1,.77,1.92,3.22,3.22,0,0,1-2.11,3,14.3,14.3,0,0,1-6.06,1,10.39,10.39,0,0,1-5.68-1.26A5.82,5.82,0,0,1,244,427.5a23.36,23.36,0,0,1-.6-5.95v-15.4h-1a3.79,3.79,0,0,1-2.64-.82,2.62,2.62,0,0,1-.91-2.08,2.58,2.58,0,0,1,1-2.07,4.2,4.2,0,0,1,2.68-.8Z" transform="translate(-100.45 -368.46)" style="fill:#fff"/><path id="Tracé_144" data-name="Tracé 144" d="M267.35,396a4.19,4.19,0,0,1-2.86-1,4,4,0,0,1,0-5.7,4.1,4.1,0,0,1,2.83-1.1,4.22,4.22,0,0,1,2.75,1,3.59,3.59,0,0,1,1.2,2.9,3.63,3.63,0,0,1-1.17,2.88A4,4,0,0,1,267.35,396Zm3.95,8.26v23.12a5.21,5.21,0,0,1-1.14,3.62,3.82,3.82,0,0,1-2.9,1.23A3.59,3.59,0,0,1,264.4,431a5.24,5.24,0,0,1-1.1-3.6V404.45a5.1,5.1,0,0,1,1.1-3.58,3.68,3.68,0,0,1,2.86-1.2,3.88,3.88,0,0,1,2.9,1.2,4.68,4.68,0,0,1,1.14,3.34Z" transform="translate(-100.45 -368.46)" style="fill:#fff"/><path id="Tracé_145" data-name="Tracé 145" d="M305.31,421.73A9.3,9.3,0,0,1,299,431a21.27,21.27,0,0,1-7.66,1.21,18.42,18.42,0,0,1-7.38-1.32,10.5,10.5,0,0,1-4.54-3.29,6.56,6.56,0,0,1-1.47-4,3.11,3.11,0,0,1,.94-2.26,3.26,3.26,0,0,1,2.37-.93,2.79,2.79,0,0,1,1.94.61,7,7,0,0,1,1.29,1.73,7.67,7.67,0,0,0,7.61,4.25,6.72,6.72,0,0,0,3.94-1.07,3,3,0,0,0,1.54-2.45,3.32,3.32,0,0,0-1.6-3.07,20.14,20.14,0,0,0-5.25-1.85,42.85,42.85,0,0,1-6.73-2.15,10.94,10.94,0,0,1-4.14-3,6.77,6.77,0,0,1-1.56-4.54,8,8,0,0,1,1.44-4.54A9.83,9.83,0,0,1,284,401a16.31,16.31,0,0,1,6.76-1.28,22.35,22.35,0,0,1,5.58.65,13.88,13.88,0,0,1,4.13,1.73,8.73,8.73,0,0,1,2.52,2.4,4.79,4.79,0,0,1,.86,2.58,3,3,0,0,1-.92,2.25,3.65,3.65,0,0,1-2.62.88,3.19,3.19,0,0,1-2.1-.7,13.77,13.77,0,0,1-2-2.11,7.37,7.37,0,0,0-2.13-1.88,6.8,6.8,0,0,0-3.34-.7,6.62,6.62,0,0,0-3.61.92,2.71,2.71,0,0,0-1.43,2.3,2.47,2.47,0,0,0,1,2.07,8.5,8.5,0,0,0,2.84,1.33c1.19.35,2.84.78,4.93,1.29a26.33,26.33,0,0,1,6.07,2.17,10.28,10.28,0,0,1,3.58,3,6.64,6.64,0,0,1,1.18,3.83Z" transform="translate(-100.45 -368.46)" style="fill:#fff"/><path id="Tracé_146" data-name="Tracé 146" d="M319.46,404.16v1a15.7,15.7,0,0,1,4.69-4.08,11.45,11.45,0,0,1,5.51-1.31,12.87,12.87,0,0,1,6.8,1.91,13.19,13.19,0,0,1,4.9,5.56,19.49,19.49,0,0,1,1.81,8.67,21.69,21.69,0,0,1-1,6.79,15.3,15.3,0,0,1-2.86,5.18A12.32,12.32,0,0,1,335,431.1a12.53,12.53,0,0,1-5.32,1.13,11.22,11.22,0,0,1-5.76-1.37,16.5,16.5,0,0,1-4.44-4.05v12c0,3.52-1.27,5.28-3.83,5.28-1.51,0-2.5-.46-3-1.36a8.59,8.59,0,0,1-.73-4V404.21a5,5,0,0,1,1-3.41,3.46,3.46,0,0,1,2.73-1.13,3.65,3.65,0,0,1,2.77,1.16,4.76,4.76,0,0,1,1,3.33Zm15.68,11.63a14.08,14.08,0,0,0-1-5.44,8.07,8.07,0,0,0-2.68-3.48,6.37,6.37,0,0,0-3.79-1.22,7.12,7.12,0,0,0-5.58,2.61c-1.52,1.74-2.27,4.29-2.27,7.67,0,3.19.75,5.66,2.25,7.43a7,7,0,0,0,5.6,2.65,6.43,6.43,0,0,0,3.69-1.16,8.07,8.07,0,0,0,2.72-3.47A13.73,13.73,0,0,0,335.14,415.79Z" transform="translate(-100.45 -368.46)" style="fill:#fff"/><path id="Tracé_147" data-name="Tracé 147" d="M379.52,415.93a19.17,19.17,0,0,1-1.11,6.59,14.72,14.72,0,0,1-3.22,5.19,14.38,14.38,0,0,1-5,3.33,17.68,17.68,0,0,1-6.59,1.15,17.17,17.17,0,0,1-6.54-1.17,14.33,14.33,0,0,1-8.24-8.51,18.46,18.46,0,0,1-1.1-6.58,18.88,18.88,0,0,1,1.11-6.65,14.29,14.29,0,0,1,3.19-5.15,14.12,14.12,0,0,1,5-3.3,19.12,19.12,0,0,1,13.13,0,14.15,14.15,0,0,1,8.27,8.5A19,19,0,0,1,379.52,415.93Zm-8,0c0-3.26-.72-5.79-2.16-7.61a7,7,0,0,0-5.78-2.73,7.12,7.12,0,0,0-4.13,1.22,7.54,7.54,0,0,0-2.76,3.59,14.53,14.53,0,0,0-1,5.53,14.26,14.26,0,0,0,.95,5.48,7.75,7.75,0,0,0,2.72,3.59,7.52,7.52,0,0,0,10-1.49c1.46-1.83,2.18-4.35,2.18-7.58Z" transform="translate(-100.45 -368.46)" style="fill:#fff"/><path id="Tracé_148" data-name="Tracé 148" d="M393.76,420.65v6.68a5.17,5.17,0,0,1-1.14,3.65,3.8,3.8,0,0,1-2.9,1.21,3.64,3.64,0,0,1-2.84-1.23,5.17,5.17,0,0,1-1.12-3.63V405.06q0-5.37,3.9-5.39a3.26,3.26,0,0,1,2.87,1.26,7,7,0,0,1,1,3.72,14.09,14.09,0,0,1,2.94-3.72,6.13,6.13,0,0,1,4-1.26,10.34,10.34,0,0,1,4.89,1.26,3.79,3.79,0,0,1,2.38,3.34,3.36,3.36,0,0,1-3.2,3.37,9.56,9.56,0,0,1-2.12-.54,10.24,10.24,0,0,0-3-.54,4.4,4.4,0,0,0-2.88.92,6,6,0,0,0-1.72,2.74,18.17,18.17,0,0,0-.85,4.32Q393.76,417,393.76,420.65Z" transform="translate(-100.45 -368.46)" style="fill:#fff"/><path id="Tracé_149" data-name="Tracé 149" d="M413.27,400.38h.88v-4.81a23.14,23.14,0,0,1,.1-3,4.26,4.26,0,0,1,.58-1.89,3.56,3.56,0,0,1,1.34-1.33,3.86,3.86,0,0,1,2-.52,3.94,3.94,0,0,1,2.75,1.15,3.44,3.44,0,0,1,1,1.86,17.18,17.18,0,0,1,.22,3.12v5.45h2.93a3.74,3.74,0,0,1,2.59.8,2.67,2.67,0,0,1,.9,2.07,2.33,2.33,0,0,1-1.28,2.25,8.33,8.33,0,0,1-3.65.65h-1.49v14.7a21.43,21.43,0,0,0,.13,2.89,2.8,2.8,0,0,0,.71,1.64,2.35,2.35,0,0,0,1.86.63,9.43,9.43,0,0,0,1.9-.25,10.63,10.63,0,0,1,1.88-.25,2.41,2.41,0,0,1,1.74.78,2.61,2.61,0,0,1,.77,1.92,3.22,3.22,0,0,1-2.1,3,14.32,14.32,0,0,1-6.07,1,10.39,10.39,0,0,1-5.68-1.26,5.82,5.82,0,0,1-2.54-3.48,23.36,23.36,0,0,1-.6-5.95v-15.4h-1.05a3.84,3.84,0,0,1-2.64-.82,2.65,2.65,0,0,1-.91-2.08,2.58,2.58,0,0,1,1-2.07,4.15,4.15,0,0,1,2.73-.8Z" transform="translate(-100.45 -368.46)" style="fill:#fff"/><path id="Tracé_150" data-name="Tracé 150" d="M459.83,421.73a9.32,9.32,0,0,1-6.38,9.25,21.27,21.27,0,0,1-7.66,1.21,18.42,18.42,0,0,1-7.38-1.32,10.64,10.64,0,0,1-4.54-3.29,6.56,6.56,0,0,1-1.47-4,3.11,3.11,0,0,1,.94-2.26,3.26,3.26,0,0,1,2.37-.93,2.79,2.79,0,0,1,1.94.61,7,7,0,0,1,1.29,1.73,7.67,7.67,0,0,0,7.61,4.25,6.74,6.74,0,0,0,4-1.07,3,3,0,0,0,1.53-2.45,3.34,3.34,0,0,0-1.59-3.07,20.08,20.08,0,0,0-5.26-1.85,42.85,42.85,0,0,1-6.73-2.15,11,11,0,0,1-4.14-3,6.71,6.71,0,0,1-1.55-4.54,8,8,0,0,1,1.43-4.54,9.81,9.81,0,0,1,4.23-3.41,16.31,16.31,0,0,1,6.76-1.28,22.35,22.35,0,0,1,5.58.65,13.88,13.88,0,0,1,4.13,1.73,8.73,8.73,0,0,1,2.52,2.4,4.79,4.79,0,0,1,.86,2.58,3,3,0,0,1-.92,2.25,3.61,3.61,0,0,1-2.62.88,3.17,3.17,0,0,1-2.1-.7,13.77,13.77,0,0,1-2-2.11,7.54,7.54,0,0,0-2.14-1.88,6.8,6.8,0,0,0-3.34-.7,6.62,6.62,0,0,0-3.61.92,2.71,2.71,0,0,0-1.43,2.3,2.47,2.47,0,0,0,1,2.07,8.55,8.55,0,0,0,2.85,1.33q1.79.54,4.92,1.29a27.06,27.06,0,0,1,6.08,2.17,10.24,10.24,0,0,1,3.57,3,6.73,6.73,0,0,1,1.2,3.93Z" transform="translate(-100.45 -368.46)" style="fill:#fff"/></g></g><g id="académie"><g id="Groupe_20" data-name="Groupe 20"><path id="Tracé_151" data-name="Tracé 151" d="M145.6,452.89a10.52,10.52,0,0,1-2.34,1.4,6.33,6.33,0,0,1-2.54.47,4.72,4.72,0,0,1-2.25-.5,3.71,3.71,0,0,1-1.49-1.37,3.51,3.51,0,0,1-.53-1.89,3.35,3.35,0,0,1,.87-2.33,4.37,4.37,0,0,1,2.38-1.29l1.57-.33c.84-.17,1.56-.33,2.16-.47s1.25-.32,1.95-.52a3.48,3.48,0,0,0-.54-1.93,2.36,2.36,0,0,0-1.94-.62,4,4,0,0,0-1.91.35,3,3,0,0,0-1.1,1.07c-.21.32-.42.63-.65.93a1,1,0,0,1-.81.23,1.36,1.36,0,0,1-1-.36,1.17,1.17,0,0,1-.41-.93,2.82,2.82,0,0,1,.62-1.71,4.6,4.6,0,0,1,1.94-1.36,8.75,8.75,0,0,1,3.29-.54,9.22,9.22,0,0,1,3.45.52,3.29,3.29,0,0,1,1.78,1.64,7.34,7.34,0,0,1,.52,3v3.82a6.79,6.79,0,0,0,.31,2,6.77,6.77,0,0,1,.32,1.31,1.25,1.25,0,0,1-.49.93,1.63,1.63,0,0,1-1.09.42,1.41,1.41,0,0,1-1-.48A5.91,5.91,0,0,1,145.6,452.89Zm-.22-4.83a15.94,15.94,0,0,1-2.13.57c-.94.2-1.58.35-1.94.44a2.65,2.65,0,0,0-1,.55,1.36,1.36,0,0,0-.49,1.14,1.67,1.67,0,0,0,.57,1.29,2.07,2.07,0,0,0,1.5.53,3.91,3.91,0,0,0,1.83-.43A2.93,2.93,0,0,0,145,451a5.08,5.08,0,0,0,.46-2.49Z" transform="translate(-100.45 -368.46)" style="fill:#fff"/><path id="Tracé_152" data-name="Tracé 152" d="M164,450.64a2.91,2.91,0,0,1-.37,1.33,4.63,4.63,0,0,1-1.14,1.35,6,6,0,0,1-1.92,1,8.3,8.3,0,0,1-2.61.39,6.35,6.35,0,0,1-4.82-1.8,6.61,6.61,0,0,1-1.74-4.83,8,8,0,0,1,.79-3.62,5.7,5.7,0,0,1,2.3-2.44,7.78,7.78,0,0,1,6-.48,6.39,6.39,0,0,1,1.83,1,4.64,4.64,0,0,1,1.15,1.27,2.57,2.57,0,0,1,.4,1.26,1.36,1.36,0,0,1-.45,1,1.45,1.45,0,0,1-1.08.41,1.07,1.07,0,0,1-.69-.21,2.86,2.86,0,0,1-.61-.69,5.31,5.31,0,0,0-1.28-1.39,3.11,3.11,0,0,0-4.07.69,4.93,4.93,0,0,0-.9,3.15,5.6,5.6,0,0,0,.23,1.73,3.76,3.76,0,0,0,.67,1.34,2.74,2.74,0,0,0,1.06.85,3.2,3.2,0,0,0,1.37.28,3.06,3.06,0,0,0,1.71-.46,4,4,0,0,0,1.27-1.42,3.33,3.33,0,0,1,.66-.88,1.22,1.22,0,0,1,.86-.31,1.33,1.33,0,0,1,1,.46A1.59,1.59,0,0,1,164,450.64Z" transform="translate(-100.45 -368.46)" style="fill:#fff"/><path id="Tracé_153" data-name="Tracé 153" d="M175.31,452.89a10.52,10.52,0,0,1-2.34,1.4,6.31,6.31,0,0,1-2.53.47,4.76,4.76,0,0,1-2.26-.5,3.71,3.71,0,0,1-1.49-1.37,3.51,3.51,0,0,1-.53-1.89,3.35,3.35,0,0,1,.87-2.33,4.37,4.37,0,0,1,2.38-1.29l1.58-.33c.83-.17,1.55-.33,2.15-.47s1.25-.32,2-.52a3.56,3.56,0,0,0-.53-1.93,2.41,2.41,0,0,0-1.95-.62,4.3,4.3,0,0,0-1.91.35,3.13,3.13,0,0,0-1.1,1.07c-.21.32-.42.63-.65.93a1,1,0,0,1-.81.23,1.36,1.36,0,0,1-1-.36,1.17,1.17,0,0,1-.41-.93,2.82,2.82,0,0,1,.62-1.71,4.62,4.62,0,0,1,2-1.36,8.7,8.7,0,0,1,3.28-.54,9.22,9.22,0,0,1,3.45.52,3.29,3.29,0,0,1,1.78,1.64,7.34,7.34,0,0,1,.52,3v3.82a6.43,6.43,0,0,0,.31,2,7.55,7.55,0,0,1,.31,1.31,1.25,1.25,0,0,1-.49.93,1.63,1.63,0,0,1-1.09.42,1.41,1.41,0,0,1-1-.48,6.33,6.33,0,0,1-1.11-1.46Zm-.22-4.83a15.94,15.94,0,0,1-2.13.57c-.93.2-1.58.35-1.94.44a2.65,2.65,0,0,0-1,.55,1.36,1.36,0,0,0-.49,1.14,1.67,1.67,0,0,0,.57,1.29,2.16,2.16,0,0,0,1.5.53,3.91,3.91,0,0,0,1.83-.43,2.83,2.83,0,0,0,1.23-1.12,5.19,5.19,0,0,0,.45-2.49Z" transform="translate(-100.45 -368.46)" style="fill:#fff"/><path id="Tracé_154" data-name="Tracé 154" d="M190.87,452.86v-.33a9.18,9.18,0,0,1-1.32,1.25,4.78,4.78,0,0,1-1.42.73,5,5,0,0,1-1.67.25,4.81,4.81,0,0,1-2.21-.5,5,5,0,0,1-1.76-1.45,6.1,6.1,0,0,1-1.13-2.21,9.08,9.08,0,0,1-.39-2.74A7.1,7.1,0,0,1,182.5,443a5,5,0,0,1,4-1.75,5.4,5.4,0,0,1,2.43.49,7.09,7.09,0,0,1,1.93,1.52v-4.92a2.44,2.44,0,0,1,.41-1.55,1.38,1.38,0,0,1,1.17-.52,1.46,1.46,0,0,1,1.16.48,2.25,2.25,0,0,1,.41,1.42v14.7a2.09,2.09,0,0,1-.44,1.43,1.44,1.44,0,0,1-1.13.47,1.39,1.39,0,0,1-1.13-.49A1.94,1.94,0,0,1,190.87,452.86ZM184.32,448a5.5,5.5,0,0,0,.42,2.3,3.08,3.08,0,0,0,1.15,1.44,2.84,2.84,0,0,0,1.6.48,2.87,2.87,0,0,0,1.61-.46,3.15,3.15,0,0,0,1.15-1.4,5.76,5.76,0,0,0,.44-2.36,5.83,5.83,0,0,0-.44-2.29,3.44,3.44,0,0,0-1.17-1.47,2.91,2.91,0,0,0-1.61-.5,2.73,2.73,0,0,0-1.64.51,3.36,3.36,0,0,0-1.12,1.49,5.82,5.82,0,0,0-.39,2.26Z" transform="translate(-100.45 -368.46)" style="fill:#fff"/><path id="Tracé_155" data-name="Tracé 155" d="M206.67,448.81h-6.52a4.32,4.32,0,0,0,.46,2,3,3,0,0,0,2.81,1.75,4.08,4.08,0,0,0,1.09-.14,3.72,3.72,0,0,0,1-.44,8.82,8.82,0,0,0,.86-.65c.26-.22.59-.53,1-.92a1,1,0,0,1,.73-.22,1.26,1.26,0,0,1,.83.28,1,1,0,0,1,.32.79,2.2,2.2,0,0,1-.36,1.06,4.2,4.2,0,0,1-1.06,1.16,6,6,0,0,1-1.8.92,7.76,7.76,0,0,1-2.48.36,6.57,6.57,0,0,1-5-1.83,6.77,6.77,0,0,1-1.79-5,8.23,8.23,0,0,1,.44-2.74,6.05,6.05,0,0,1,1.28-2.17,5.77,5.77,0,0,1,2.08-1.39,7.45,7.45,0,0,1,2.73-.48,6.69,6.69,0,0,1,3.36.82,5.58,5.58,0,0,1,2.09,2.14,5.75,5.75,0,0,1,.69,2.66,1.68,1.68,0,0,1-.72,1.63,4.63,4.63,0,0,1-2,.41Zm-6.52-1.89h6a4.11,4.11,0,0,0-.92-2.56,2.79,2.79,0,0,0-2.11-.85,2.66,2.66,0,0,0-2,.86,4.2,4.2,0,0,0-1,2.55Zm3.42-10.49h1.64q.63,0,.63.18a3.79,3.79,0,0,1-.69.8c-.45.46-.91.9-1.38,1.33a6.19,6.19,0,0,1-1,.77,3.39,3.39,0,0,1-1.49.35c-.35,0-.52-.1-.52-.3a1.69,1.69,0,0,1,.31-.73l.55-1a3.6,3.6,0,0,1,.83-1.14,2.06,2.06,0,0,1,1.12-.26Z" transform="translate(-100.45 -368.46)" style="fill:#fff"/><path id="Tracé_156" data-name="Tracé 156" d="M223.31,448.23v4.44a2.26,2.26,0,0,1-.48,1.57,1.64,1.64,0,0,1-1.26.52,1.55,1.55,0,0,1-1.23-.52,2.28,2.28,0,0,1-.46-1.57v-5.31a16.73,16.73,0,0,0-.09-2,2.2,2.2,0,0,0-.46-1.14,1.51,1.51,0,0,0-1.2-.44A2.13,2.13,0,0,0,216,444.9a7.86,7.86,0,0,0-.51,3.22v4.51a2.3,2.3,0,0,1-.47,1.56,1.72,1.72,0,0,1-2.44.05l0-.05a2.2,2.2,0,0,1-.48-1.56v-9.54a2.06,2.06,0,0,1,.43-1.43,1.48,1.48,0,0,1,1.14-.48,1.58,1.58,0,0,1,1.14.45,1.74,1.74,0,0,1,.46,1.27v.31a5.71,5.71,0,0,1,1.86-1.52,4.87,4.87,0,0,1,2.19-.49,4.4,4.4,0,0,1,2.16.5,4,4,0,0,1,1.49,1.51,5.9,5.9,0,0,1,1.81-1.52,4.64,4.64,0,0,1,2.14-.49,4.94,4.94,0,0,1,2.35.54,3.45,3.45,0,0,1,1.48,1.54,7.25,7.25,0,0,1,.43,2.84v6.51a2.26,2.26,0,0,1-.48,1.57,1.64,1.64,0,0,1-1.26.52,1.57,1.57,0,0,1-1.24-.53,2.2,2.2,0,0,1-.48-1.56V447a16.51,16.51,0,0,0-.09-1.72,2.21,2.21,0,0,0-.49-1.09,1.6,1.6,0,0,0-1.23-.43,2.28,2.28,0,0,0-1.25.39,2.59,2.59,0,0,0-.92,1.05A8.11,8.11,0,0,0,223.31,448.23Z" transform="translate(-100.45 -368.46)" style="fill:#fff"/><path id="Tracé_157" data-name="Tracé 157" d="M236,439.67a1.73,1.73,0,0,1-1.19-.43,1.46,1.46,0,0,1-.5-1.21,1.51,1.51,0,0,1,.51-1.17,1.79,1.79,0,0,1,2.32,0,1.49,1.49,0,0,1,.5,1.21,1.53,1.53,0,0,1-.49,1.2A1.62,1.62,0,0,1,236,439.67Zm1.64,3.44v9.63a2.2,2.2,0,0,1-.47,1.51,1.61,1.61,0,0,1-1.21.51,1.46,1.46,0,0,1-1.19-.52,2.13,2.13,0,0,1-.46-1.5v-9.53a2.06,2.06,0,0,1,.46-1.49,1.52,1.52,0,0,1,1.19-.5,1.64,1.64,0,0,1,1.21.5,2.08,2.08,0,0,1,.47,1.39Z" transform="translate(-100.45 -368.46)" style="fill:#fff"/><path id="Tracé_158" data-name="Tracé 158" d="M250.42,448.81H243.9a4.32,4.32,0,0,0,.46,2,3,3,0,0,0,2.81,1.75,4.08,4.08,0,0,0,1.09-.14,3.72,3.72,0,0,0,1-.44,8.82,8.82,0,0,0,.86-.65c.26-.22.59-.53,1-.92a1,1,0,0,1,.73-.22,1.26,1.26,0,0,1,.83.28,1,1,0,0,1,.32.79,2.2,2.2,0,0,1-.36,1.06,4.2,4.2,0,0,1-1.06,1.16,6,6,0,0,1-1.8.92,7.76,7.76,0,0,1-2.48.36,6.57,6.57,0,0,1-5-1.83,6.77,6.77,0,0,1-1.79-5,8.23,8.23,0,0,1,.44-2.74,6.05,6.05,0,0,1,1.28-2.17,5.77,5.77,0,0,1,2.08-1.39,7.45,7.45,0,0,1,2.73-.48,6.69,6.69,0,0,1,3.36.82,5.58,5.58,0,0,1,2.09,2.14,5.75,5.75,0,0,1,.69,2.66,1.68,1.68,0,0,1-.72,1.63A4.63,4.63,0,0,1,250.42,448.81Zm-6.52-1.89h6a4.11,4.11,0,0,0-.92-2.56,2.79,2.79,0,0,0-2.11-.85,2.66,2.66,0,0,0-2,.86,4.2,4.2,0,0,0-1,2.55Z" transform="translate(-100.45 -368.46)" style="fill:#fff"/></g></g><g id="R"><g id="Groupe_21" data-name="Groupe 21"><path id="Tracé_159" data-name="Tracé 159" d="M267.83,451.29a.15.15,0,0,1-.12.16h-1.12a.18.18,0,0,1-.1-.07.17.17,0,0,1,0-.1l-.57-1.41c-.07-.16-.14-.3-.2-.42a1.73,1.73,0,0,0-.22-.31,1,1,0,0,0-.27-.19,1.19,1.19,0,0,0-.37-.06h-.4v2.4a.14.14,0,0,1,0,.09.17.17,0,0,1-.1.07h-1a.14.14,0,0,1-.1-.07.07.07,0,0,1,0-.09v-5.73a.37.37,0,0,1,.11-.31.38.38,0,0,1,.27-.1H266a2.81,2.81,0,0,1,.69.18,1.6,1.6,0,0,1,.51.35,1.41,1.41,0,0,1,.33.5,2.08,2.08,0,0,1,0,1.24,1.4,1.4,0,0,1-.24.47,1.61,1.61,0,0,1-.38.36,1.93,1.93,0,0,1-.53.24,2,2,0,0,1,.27.17l.24.23a3.45,3.45,0,0,1,.2.32c.07.13.13.26.19.4l.54,1.25.09.27a.77.77,0,0,1-.07.16ZM266.17,447a.9.9,0,0,0-.14-.53.83.83,0,0,0-.46-.3h-1.15V448h.66a1.59,1.59,0,0,0,.48-.07,1,1,0,0,0,.34-.19.84.84,0,0,0,.2-.28A1,1,0,0,0,266.17,447Z" transform="translate(-100.45 -368.46)" style="fill:#fff"/></g></g><g id="Ellipse_2" data-name="Ellipse 2"><ellipse id="Ellipse_10" data-name="Ellipse 10" cx="165" cy="79.5" rx="6" ry="6.5" style="fill:none"/><path id="Tracé_160" data-name="Tracé 160" d="M265.45,454.46a6.52,6.52,0,1,1,6-7,4.67,4.67,0,0,1,0,.52A6.27,6.27,0,0,1,265.45,454.46Zm0-12a5.52,5.52,0,1,0,5,6,4.53,4.53,0,0,0,0-.52A5.28,5.28,0,0,0,265.45,442.46Z" transform="translate(-100.45 -368.46)" style="fill:#fff"/></g></svg>