<svg id="Calque_1" data-name="Calque 1" xmlns="http://www.w3.org/2000/svg" viewBox="0 0 395 105"><g id="logo-fond-bleu-sans-bords-orange"><g id="Tracé_4" data-name="Tracé 4"><path id="Tracé_93" data-name="Tracé 93" d="M442.94,468.46h-290a47.5,47.5,0,0,1,0-95h290a47.5,47.5,0,0,1,0,95Z" transform="translate(-100.44 -368.46)" style="fill:#fff"/><path id="Tracé_94" data-name="Tracé 94" d="M152.94,378.46a42.5,42.5,0,0,0,0,85h290a42.5,42.5,0,0,0,0-85h-290m0-10h290a52.5,52.5,0,0,1,0,105h-290a52.5,52.5,0,0,1,0-105Z" transform="translate(-100.44 -368.46)" style="fill:#fff"/></g><g id="Multisports"><g id="Groupe_13" data-name="Groupe 13"><path id="Tracé_95" data-name="Tracé 95" d="M154.62,425l-6.88-27.37v29.65a5.38,5.38,0,0,1-1.1,3.69,4,4,0,0,1-5.66.13l-.13-.13a5.34,5.34,0,0,1-1.11-3.71v-34c0-1.88.49-3.14,1.46-3.8a7.11,7.11,0,0,1,4-1h2.69a10.29,10.29,0,0,1,3.53.44,3,3,0,0,1,1.63,1.58,24.43,24.43,0,0,1,1.2,3.72l6.24,23.53,6.24-23.53a24.43,24.43,0,0,1,1.2-3.72,3,3,0,0,1,1.63-1.58,10.29,10.29,0,0,1,3.53-.44h2.69a7.11,7.11,0,0,1,4,1c1,.66,1.46,1.92,1.46,3.8v34a5.38,5.38,0,0,1-1.1,3.69,3.74,3.74,0,0,1-2.94,1.23,3.67,3.67,0,0,1-2.84-1.23,5.34,5.34,0,0,1-1.11-3.69V397.62l-7,27.38c-.45,1.77-.81,3.08-1.1,3.91a5.44,5.44,0,0,1-1.57,2.27,4.57,4.57,0,0,1-3.16,1,4.64,4.64,0,0,1-4.22-2.34,9.74,9.74,0,0,1-.92-2.27C155.08,426.75,154.86,425.88,154.62,425Z" transform="translate(-100.44 -368.46)" style="fill:#8cbdb8"/><path id="Tracé_96" data-name="Tracé 96" d="M210.31,427.68v-1a17.74,17.74,0,0,1-3,3,11.17,11.17,0,0,1-3.46,1.83,14.1,14.1,0,0,1-4.28.6,11,11,0,0,1-5.2-1.2,8.74,8.74,0,0,1-3.56-3.31,14.7,14.7,0,0,1-1.49-7.32V404.45a5.16,5.16,0,0,1,1.08-3.59,3.71,3.71,0,0,1,2.87-1.19,3.82,3.82,0,0,1,2.93,1.2,5.06,5.06,0,0,1,1.12,3.58v12.8a19.79,19.79,0,0,0,.46,4.67,5.68,5.68,0,0,0,1.69,3,4.76,4.76,0,0,0,3.3,1.07,6.71,6.71,0,0,0,3.8-1.2,7,7,0,0,0,2.61-3.13q.67-1.71.68-7.45v-9.72a5.1,5.1,0,0,1,1.11-3.58,3.78,3.78,0,0,1,2.9-1.2,3.72,3.72,0,0,1,2.87,1.19,5.21,5.21,0,0,1,1.08,3.59v23.17a4.92,4.92,0,0,1-1,3.43,3.45,3.45,0,0,1-2.68,1.14,3.5,3.5,0,0,1-2.71-1.18,4.82,4.82,0,0,1-1.12-3.37Z" transform="translate(-100.44 -368.46)" style="fill:#8cbdb8"/><path id="Tracé_97" data-name="Tracé 97" d="M225.78,427.33V392.64a5.43,5.43,0,0,1,1.07-3.63,3.62,3.62,0,0,1,2.89-1.23,3.77,3.77,0,0,1,2.93,1.21,5.27,5.27,0,0,1,1.11,3.65v34.69a5.23,5.23,0,0,1-1.13,3.65,3.77,3.77,0,0,1-2.91,1.21,3.63,3.63,0,0,1-2.86-1.26,5.37,5.37,0,0,1-1.1-3.6Z" transform="translate(-100.44 -368.46)" style="fill:#8cbdb8"/><path id="Tracé_98" data-name="Tracé 98" d="M242.48,400.38h.88v-4.81a25.06,25.06,0,0,1,.1-3,4.52,4.52,0,0,1,.57-1.89,3.74,3.74,0,0,1,1.35-1.33,3.7,3.7,0,0,1,2-.52,3.94,3.94,0,0,1,2.75,1.15,3.28,3.28,0,0,1,1,1.86,17.18,17.18,0,0,1,.22,3.12v5.45h2.93a3.73,3.73,0,0,1,2.59.8,2.63,2.63,0,0,1,.89,2.07,2.3,2.3,0,0,1-1.27,2.25,8.3,8.3,0,0,1-3.65.65h-1.49v14.7a23.29,23.29,0,0,0,.13,2.89,3,3,0,0,0,.7,1.64A2.4,2.4,0,0,0,254,426a9.52,9.52,0,0,0,1.91-.25,10.64,10.64,0,0,1,1.87-.25,2.42,2.42,0,0,1,1.75.78,2.65,2.65,0,0,1,.77,1.92,3.22,3.22,0,0,1-2.11,3,14.25,14.25,0,0,1-6.06,1,10.43,10.43,0,0,1-5.68-1.26A5.82,5.82,0,0,1,244,427.5a23.82,23.82,0,0,1-.6-5.95v-15.4h-1a3.87,3.87,0,0,1-2.64-.82,2.67,2.67,0,0,1-.91-2.08,2.58,2.58,0,0,1,1-2.07,4.14,4.14,0,0,1,2.68-.8Z" transform="translate(-100.44 -368.46)" style="fill:#8cbdb8"/><path id="Tracé_99" data-name="Tracé 99" d="M267.33,396a4.27,4.27,0,0,1-2.86-1,3.66,3.66,0,0,1-1.19-2.9,3.61,3.61,0,0,1,1.22-2.8,4.08,4.08,0,0,1,2.83-1.1,4.14,4.14,0,0,1,2.75,1,3.56,3.56,0,0,1,1.2,2.9,3.64,3.64,0,0,1-1.17,2.88A4,4,0,0,1,267.33,396Zm3.95,8.26v23.12a5.16,5.16,0,0,1-1.14,3.62,3.79,3.79,0,0,1-2.9,1.23,3.63,3.63,0,0,1-2.86-1.26,5.37,5.37,0,0,1-1.1-3.6V404.45a5.19,5.19,0,0,1,1.1-3.58,3.69,3.69,0,0,1,2.86-1.2,3.83,3.83,0,0,1,2.9,1.2,4.68,4.68,0,0,1,1.14,3.34Z" transform="translate(-100.44 -368.46)" style="fill:#8cbdb8"/><path id="Tracé_100" data-name="Tracé 100" d="M305.29,421.73a9.29,9.29,0,0,1-6.35,9.27,21.24,21.24,0,0,1-7.66,1.21,18.81,18.81,0,0,1-7.38-1.32,10.64,10.64,0,0,1-4.54-3.29,6.64,6.64,0,0,1-1.47-4,3.1,3.1,0,0,1,.94-2.26,3.23,3.23,0,0,1,2.37-.93,2.79,2.79,0,0,1,1.94.61,6.85,6.85,0,0,1,1.29,1.73A7.68,7.68,0,0,0,292,427a6.78,6.78,0,0,0,3.94-1.07,3,3,0,0,0,1.54-2.45,3.3,3.3,0,0,0-1.6-3.07,19.54,19.54,0,0,0-5.25-1.85,42.85,42.85,0,0,1-6.73-2.15,11,11,0,0,1-4.14-3,6.77,6.77,0,0,1-1.56-4.54,8,8,0,0,1,1.44-4.54,9.82,9.82,0,0,1,4.26-3.33,16.34,16.34,0,0,1,6.76-1.28,22.35,22.35,0,0,1,5.58.65,13.77,13.77,0,0,1,4.13,1.73,8.73,8.73,0,0,1,2.52,2.4,4.77,4.77,0,0,1,.86,2.58,3,3,0,0,1-.92,2.25,3.64,3.64,0,0,1-2.62.88,3.27,3.27,0,0,1-2.1-.7,13.77,13.77,0,0,1-2-2.11,7.24,7.24,0,0,0-2.13-1.88,6.69,6.69,0,0,0-3.34-.7,6.54,6.54,0,0,0-3.61.92,2.71,2.71,0,0,0-1.43,2.3,2.5,2.5,0,0,0,1.05,2.07,8.79,8.79,0,0,0,2.84,1.33c1.19.35,2.84.78,4.93,1.29a26.33,26.33,0,0,1,6.07,2.17,10.08,10.08,0,0,1,3.58,3,6.62,6.62,0,0,1,1.18,3.83Z" transform="translate(-100.44 -368.46)" style="fill:#8cbdb8"/><path id="Tracé_101" data-name="Tracé 101" d="M319.44,404.16v1a15.82,15.82,0,0,1,4.69-4.08,11.48,11.48,0,0,1,5.51-1.31,12.76,12.76,0,0,1,6.8,1.91,13.06,13.06,0,0,1,4.9,5.56,19.22,19.22,0,0,1,1.81,8.67,21.13,21.13,0,0,1-1,6.79,15.3,15.3,0,0,1-2.86,5.18,12.53,12.53,0,0,1-9.61,4.35,11.22,11.22,0,0,1-5.76-1.37,16.65,16.65,0,0,1-4.44-4.05v12c0,3.52-1.27,5.28-3.83,5.28-1.51,0-2.5-.46-3-1.36a8.61,8.61,0,0,1-.73-4V404.21a5,5,0,0,1,1-3.41,3.49,3.49,0,0,1,2.73-1.13,3.62,3.62,0,0,1,2.77,1.16,4.76,4.76,0,0,1,1,3.33Zm15.68,11.63a13.71,13.71,0,0,0-1-5.44,8,8,0,0,0-2.68-3.48,6.37,6.37,0,0,0-3.79-1.22,7.13,7.13,0,0,0-5.58,2.61c-1.52,1.74-2.27,4.29-2.27,7.67,0,3.19.75,5.66,2.25,7.43a7,7,0,0,0,5.6,2.65,6.41,6.41,0,0,0,3.69-1.16,8,8,0,0,0,2.72-3.47A13.73,13.73,0,0,0,335.12,415.79Z" transform="translate(-100.44 -368.46)" style="fill:#8cbdb8"/><path id="Tracé_102" data-name="Tracé 102" d="M379.5,415.93a19,19,0,0,1-1.11,6.59,14.57,14.57,0,0,1-3.22,5.19,14.43,14.43,0,0,1-5,3.33,17.64,17.64,0,0,1-6.59,1.15A17.37,17.37,0,0,1,357,431a14.39,14.39,0,0,1-8.24-8.51,18.68,18.68,0,0,1-1.1-6.58,19,19,0,0,1,1.11-6.65,14.43,14.43,0,0,1,3.19-5.15,14.08,14.08,0,0,1,5-3.3,19.12,19.12,0,0,1,13.13,0,14.13,14.13,0,0,1,8.27,8.5A18.79,18.79,0,0,1,379.5,415.93Zm-8,0q0-4.89-2.16-7.61a7,7,0,0,0-5.78-2.73,7.14,7.14,0,0,0-4.13,1.22,7.66,7.66,0,0,0-2.76,3.59,16,16,0,0,0-.05,11,7.87,7.87,0,0,0,2.72,3.59,7.16,7.16,0,0,0,4.18,1.25,7,7,0,0,0,5.78-2.74c1.46-1.83,2.18-4.35,2.18-7.58Z" transform="translate(-100.44 -368.46)" style="fill:#8cbdb8"/><path id="Tracé_103" data-name="Tracé 103" d="M393.74,420.65v6.68A5.19,5.19,0,0,1,392.6,431a3.82,3.82,0,0,1-2.9,1.21,3.67,3.67,0,0,1-2.84-1.23,5.18,5.18,0,0,1-1.12-3.63V405.06c0-3.59,1.3-5.38,3.9-5.39a3.24,3.24,0,0,1,2.87,1.26,6.87,6.87,0,0,1,1,3.72,14.13,14.13,0,0,1,2.94-3.72,6.07,6.07,0,0,1,4-1.26,10.31,10.31,0,0,1,4.89,1.26,3.75,3.75,0,0,1,2.38,3.34,3.35,3.35,0,0,1-3.2,3.37,9.7,9.7,0,0,1-2.12-.54,9.92,9.92,0,0,0-3-.54,4.4,4.4,0,0,0-2.88.92,6,6,0,0,0-1.72,2.74,18.68,18.68,0,0,0-.85,4.32Q393.74,417,393.74,420.65Z" transform="translate(-100.44 -368.46)" style="fill:#8cbdb8"/><path id="Tracé_104" data-name="Tracé 104" d="M413.25,400.38h.88v-4.81a25.06,25.06,0,0,1,.1-3,4.49,4.49,0,0,1,.58-1.89,3.49,3.49,0,0,1,1.34-1.33,3.7,3.7,0,0,1,2-.52A3.94,3.94,0,0,1,420.9,390a3.28,3.28,0,0,1,1,1.86,17.18,17.18,0,0,1,.22,3.12v5.45h2.93a3.73,3.73,0,0,1,2.59.8,2.67,2.67,0,0,1,.9,2.07,2.31,2.31,0,0,1-1.28,2.25,8.3,8.3,0,0,1-3.65.65h-1.49v14.7a23.29,23.29,0,0,0,.13,2.89,2.93,2.93,0,0,0,.71,1.64,2.4,2.4,0,0,0,1.86.63,9.33,9.33,0,0,0,1.9-.25,10.88,10.88,0,0,1,1.88-.25,2.41,2.41,0,0,1,1.74.78,2.61,2.61,0,0,1,.77,1.92,3.22,3.22,0,0,1-2.1,3,14.32,14.32,0,0,1-6.07,1,10.43,10.43,0,0,1-5.68-1.26,5.82,5.82,0,0,1-2.54-3.48,23.82,23.82,0,0,1-.6-5.95v-15.4h-1.05a3.87,3.87,0,0,1-2.64-.82,2.72,2.72,0,0,1-.91-2.08,2.58,2.58,0,0,1,1-2.07,4.17,4.17,0,0,1,2.73-.8Z" transform="translate(-100.44 -368.46)" style="fill:#8cbdb8"/><path id="Tracé_105" data-name="Tracé 105" d="M459.81,421.73a9.32,9.32,0,0,1-6.38,9.25,21.24,21.24,0,0,1-7.66,1.21,18.81,18.81,0,0,1-7.38-1.32,10.64,10.64,0,0,1-4.54-3.29,6.64,6.64,0,0,1-1.47-4,3.1,3.1,0,0,1,.94-2.26,3.23,3.23,0,0,1,2.37-.93,2.79,2.79,0,0,1,1.94.61,6.85,6.85,0,0,1,1.29,1.73,7.68,7.68,0,0,0,7.61,4.25,6.82,6.82,0,0,0,4-1.07,3,3,0,0,0,1.53-2.45,3.31,3.31,0,0,0-1.59-3.07,19.72,19.72,0,0,0-5.26-1.85,42.85,42.85,0,0,1-6.73-2.15,11.2,11.2,0,0,1-4.14-3,6.81,6.81,0,0,1-1.55-4.54,7.94,7.94,0,0,1,1.43-4.54,9.87,9.87,0,0,1,4.23-3.41,16.34,16.34,0,0,1,6.76-1.28,22.35,22.35,0,0,1,5.58.65,13.77,13.77,0,0,1,4.13,1.73,8.73,8.73,0,0,1,2.52,2.4,4.61,4.61,0,0,1,.86,2.58,3,3,0,0,1-.92,2.25,3.64,3.64,0,0,1-2.62.88,3.27,3.27,0,0,1-2.1-.7,13.77,13.77,0,0,1-2-2.11,7.28,7.28,0,0,0-2.14-1.88,6.69,6.69,0,0,0-3.34-.7,6.54,6.54,0,0,0-3.61.92,2.71,2.71,0,0,0-1.43,2.3,2.5,2.5,0,0,0,1.05,2.07,8.84,8.84,0,0,0,2.85,1.33q1.79.53,4.92,1.29A26.24,26.24,0,0,1,455,414.8a10.15,10.15,0,0,1,3.57,3,6.59,6.59,0,0,1,1.2,3.93Z" transform="translate(-100.44 -368.46)" style="fill:#8cbdb8"/></g></g><g id="académie"><g id="Groupe_14" data-name="Groupe 14"><path id="Tracé_106" data-name="Tracé 106" d="M145.58,452.89a10.29,10.29,0,0,1-2.34,1.4,6.33,6.33,0,0,1-2.54.47,4.75,4.75,0,0,1-2.25-.5,3.78,3.78,0,0,1-1.49-1.37,3.6,3.6,0,0,1-.53-1.89,3.35,3.35,0,0,1,.87-2.33,4.41,4.41,0,0,1,2.38-1.29l1.57-.33c.84-.17,1.56-.33,2.16-.47s1.25-.32,2-.52a3.38,3.38,0,0,0-.54-1.93,2.35,2.35,0,0,0-1.94-.62,4,4,0,0,0-1.91.35,3,3,0,0,0-1.1,1.07c-.2.32-.42.63-.65.93a1.08,1.08,0,0,1-.81.23,1.45,1.45,0,0,1-1-.36,1.17,1.17,0,0,1-.41-.93,2.89,2.89,0,0,1,.62-1.71,4.49,4.49,0,0,1,1.94-1.36,8.78,8.78,0,0,1,3.29-.54,9.22,9.22,0,0,1,3.45.52,3.25,3.25,0,0,1,1.78,1.64,7.31,7.31,0,0,1,.52,3v3.82a7.13,7.13,0,0,0,.31,2,6.43,6.43,0,0,1,.32,1.31,1.25,1.25,0,0,1-.49.93,1.63,1.63,0,0,1-1.09.42,1.49,1.49,0,0,1-1-.48A6.94,6.94,0,0,1,145.58,452.89Zm-.22-4.83a15.94,15.94,0,0,1-2.13.57c-.94.2-1.58.35-1.94.44a2.59,2.59,0,0,0-1,.55,1.38,1.38,0,0,0-.49,1.14,1.69,1.69,0,0,0,.57,1.29,2.16,2.16,0,0,0,1.5.53,3.88,3.88,0,0,0,1.83-.43,2.87,2.87,0,0,0,1.24-1.15,5.08,5.08,0,0,0,.46-2.49Z" transform="translate(-100.44 -368.46)" style="fill:#8cbdb8"/><path id="Tracé_107" data-name="Tracé 107" d="M163.94,450.64a2.83,2.83,0,0,1-.37,1.33,4.63,4.63,0,0,1-1.14,1.35,5.78,5.78,0,0,1-1.92,1,8.22,8.22,0,0,1-2.61.39,6.39,6.39,0,0,1-4.82-1.8,6.66,6.66,0,0,1-1.74-4.83,8.1,8.1,0,0,1,.79-3.62,5.65,5.65,0,0,1,2.3-2.44,7.78,7.78,0,0,1,6-.48,6.16,6.16,0,0,1,1.83,1,4.64,4.64,0,0,1,1.15,1.27,2.57,2.57,0,0,1,.4,1.26,1.32,1.32,0,0,1-.45,1,1.49,1.49,0,0,1-1.08.41,1.13,1.13,0,0,1-.69-.21,3.08,3.08,0,0,1-.61-.69,5.14,5.14,0,0,0-1.28-1.39,3.11,3.11,0,0,0-4.07.69,5,5,0,0,0-.9,3.15,6,6,0,0,0,.23,1.73,3.76,3.76,0,0,0,.67,1.34,2.94,2.94,0,0,0,1.06.85,3.23,3.23,0,0,0,1.37.28,3,3,0,0,0,1.71-.46,3.94,3.94,0,0,0,1.27-1.42,3.18,3.18,0,0,1,.66-.88,1.23,1.23,0,0,1,.86-.31,1.3,1.3,0,0,1,1,.46A1.52,1.52,0,0,1,163.94,450.64Z" transform="translate(-100.44 -368.46)" style="fill:#8cbdb8"/><path id="Tracé_108" data-name="Tracé 108" d="M175.29,452.89a10.29,10.29,0,0,1-2.34,1.4,6.25,6.25,0,0,1-2.53.47,4.79,4.79,0,0,1-2.26-.5,3.78,3.78,0,0,1-1.49-1.37,3.6,3.6,0,0,1-.53-1.89,3.35,3.35,0,0,1,.87-2.33,4.41,4.41,0,0,1,2.38-1.29l1.58-.33c.83-.17,1.55-.33,2.15-.47s1.25-.32,1.95-.52a3.47,3.47,0,0,0-.53-1.93,2.41,2.41,0,0,0-1.95-.62,4,4,0,0,0-1.91.35,3.13,3.13,0,0,0-1.1,1.07c-.2.32-.42.63-.65.93a1,1,0,0,1-.81.23,1.45,1.45,0,0,1-1-.36,1.17,1.17,0,0,1-.41-.93,2.89,2.89,0,0,1,.62-1.71,4.45,4.45,0,0,1,2-1.36,8.73,8.73,0,0,1,3.28-.54,9.22,9.22,0,0,1,3.45.52,3.25,3.25,0,0,1,1.78,1.64,7.15,7.15,0,0,1,.52,3v3.82a6.48,6.48,0,0,0,.31,2,6.41,6.41,0,0,1,.31,1.31,1.19,1.19,0,0,1-.49.93,1.63,1.63,0,0,1-1.09.42,1.49,1.49,0,0,1-1-.48,7.13,7.13,0,0,1-1.11-1.46Zm-.22-4.83a15.94,15.94,0,0,1-2.13.57c-.93.2-1.58.35-1.94.44a2.59,2.59,0,0,0-1,.55,1.38,1.38,0,0,0-.49,1.14,1.69,1.69,0,0,0,.57,1.29,2.16,2.16,0,0,0,1.5.53,3.88,3.88,0,0,0,1.83-.43,2.83,2.83,0,0,0,1.23-1.12,5.09,5.09,0,0,0,.45-2.49Z" transform="translate(-100.44 -368.46)" style="fill:#8cbdb8"/><path id="Tracé_109" data-name="Tracé 109" d="M190.85,452.86v-.33a9.18,9.18,0,0,1-1.32,1.25,4.78,4.78,0,0,1-1.42.73,5.24,5.24,0,0,1-1.67.25,4.83,4.83,0,0,1-2.21-.5,5,5,0,0,1-1.76-1.45,6.44,6.44,0,0,1-1.13-2.21,9.08,9.08,0,0,1-.39-2.74,7.14,7.14,0,0,1,1.53-4.87,5,5,0,0,1,4-1.75,5.35,5.35,0,0,1,2.43.49,6.94,6.94,0,0,1,1.93,1.52v-4.92a2.5,2.5,0,0,1,.41-1.55,1.39,1.39,0,0,1,1.17-.52,1.42,1.42,0,0,1,1.16.48,2.18,2.18,0,0,1,.41,1.42v14.7a2.05,2.05,0,0,1-.44,1.43,1.43,1.43,0,0,1-1.13.47,1.4,1.4,0,0,1-1.13-.49A2,2,0,0,1,190.85,452.86ZM184.3,448a5.66,5.66,0,0,0,.42,2.3,3.18,3.18,0,0,0,1.15,1.44,2.84,2.84,0,0,0,1.6.48,2.87,2.87,0,0,0,1.61-.46,3,3,0,0,0,1.15-1.4,5.79,5.79,0,0,0,.44-2.36,5.44,5.44,0,0,0-.44-2.29,3.37,3.37,0,0,0-1.17-1.47,2.81,2.81,0,0,0-1.61-.5,2.75,2.75,0,0,0-1.64.51,3.45,3.45,0,0,0-1.12,1.49,6,6,0,0,0-.39,2.26Z" transform="translate(-100.44 -368.46)" style="fill:#8cbdb8"/><path id="Tracé_110" data-name="Tracé 110" d="M206.65,448.81h-6.52a4.35,4.35,0,0,0,.46,2,3,3,0,0,0,2.81,1.75,4.46,4.46,0,0,0,1.09-.14,4.06,4.06,0,0,0,1-.44,7.76,7.76,0,0,0,.86-.65c.26-.22.59-.53,1-.92a1.07,1.07,0,0,1,.73-.22,1.15,1.15,0,0,1,.83.28,1,1,0,0,1,.32.79,2.13,2.13,0,0,1-.36,1.06,4.34,4.34,0,0,1-1.06,1.16,6,6,0,0,1-1.8.92,8,8,0,0,1-2.48.36,6.57,6.57,0,0,1-5-1.83,6.79,6.79,0,0,1-1.79-5,8.23,8.23,0,0,1,.44-2.74,6.2,6.2,0,0,1,1.28-2.17,5.77,5.77,0,0,1,2.08-1.39,7.48,7.48,0,0,1,2.73-.48,6.59,6.59,0,0,1,3.36.82,5.38,5.38,0,0,1,2.09,2.14,5.64,5.64,0,0,1,.69,2.66,1.68,1.68,0,0,1-.72,1.63,4.63,4.63,0,0,1-2,.41Zm-6.52-1.89h6a4.06,4.06,0,0,0-.92-2.56,2.79,2.79,0,0,0-2.11-.85,2.66,2.66,0,0,0-2,.86,4.26,4.26,0,0,0-1,2.55Zm3.42-10.49h1.64q.63,0,.63.18a3.52,3.52,0,0,1-.69.8c-.45.46-.91.9-1.38,1.33a5.78,5.78,0,0,1-1,.77,3.33,3.33,0,0,1-1.49.35c-.35,0-.52-.1-.52-.3a1.82,1.82,0,0,1,.31-.73l.55-1a3.6,3.6,0,0,1,.83-1.14,2,2,0,0,1,1.12-.26Z" transform="translate(-100.44 -368.46)" style="fill:#8cbdb8"/><path id="Tracé_111" data-name="Tracé 111" d="M223.29,448.23v4.44a2.28,2.28,0,0,1-.48,1.57,1.61,1.61,0,0,1-1.26.52,1.55,1.55,0,0,1-1.23-.52,2.33,2.33,0,0,1-.46-1.57v-5.31a16.64,16.64,0,0,0-.09-2,2.16,2.16,0,0,0-.46-1.14,1.48,1.48,0,0,0-1.2-.44A2.12,2.12,0,0,0,216,444.9a8,8,0,0,0-.51,3.22v4.51a2.31,2.31,0,0,1-.47,1.56,1.72,1.72,0,0,1-2.43.05l0-.05a2.25,2.25,0,0,1-.48-1.56v-9.54a2.11,2.11,0,0,1,.43-1.43,1.46,1.46,0,0,1,1.14-.48,1.55,1.55,0,0,1,1.14.45,1.7,1.7,0,0,1,.46,1.27v.31a5.82,5.82,0,0,1,1.86-1.52,4.87,4.87,0,0,1,2.19-.49,4.4,4.4,0,0,1,2.16.5,3.86,3.86,0,0,1,1.49,1.51,5.9,5.9,0,0,1,1.81-1.52,4.67,4.67,0,0,1,2.14-.49,4.8,4.8,0,0,1,2.35.54,3.34,3.34,0,0,1,1.48,1.54,7.22,7.22,0,0,1,.43,2.84v6.51a2.28,2.28,0,0,1-.48,1.57,1.75,1.75,0,0,1-2.5,0,2.25,2.25,0,0,1-.48-1.56V447a12.39,12.39,0,0,0-.09-1.72,2,2,0,0,0-.49-1.09,1.6,1.6,0,0,0-1.23-.43,2.23,2.23,0,0,0-1.25.39,2.67,2.67,0,0,0-.92,1.05A8.5,8.5,0,0,0,223.29,448.23Z" transform="translate(-100.44 -368.46)" style="fill:#8cbdb8"/><path id="Tracé_112" data-name="Tracé 112" d="M236,439.67a1.73,1.73,0,0,1-1.19-.43,1.49,1.49,0,0,1-.5-1.21,1.53,1.53,0,0,1,.51-1.17,1.79,1.79,0,0,1,2.32,0,1.46,1.46,0,0,1,.5,1.21,1.52,1.52,0,0,1-.49,1.2A1.67,1.67,0,0,1,236,439.67Zm1.64,3.44v9.63a2.18,2.18,0,0,1-.47,1.51,1.58,1.58,0,0,1-1.21.51,1.47,1.47,0,0,1-1.19-.52,2.2,2.2,0,0,1-.46-1.5v-9.53a2.11,2.11,0,0,1,.46-1.49,1.5,1.5,0,0,1,1.19-.5,1.57,1.57,0,0,1,1.21.5,2,2,0,0,1,.47,1.39Z" transform="translate(-100.44 -368.46)" style="fill:#8cbdb8"/><path id="Tracé_113" data-name="Tracé 113" d="M250.4,448.81h-6.52a4.35,4.35,0,0,0,.46,2,3,3,0,0,0,2.81,1.75,4.46,4.46,0,0,0,1.09-.14,4.06,4.06,0,0,0,1-.44,7.76,7.76,0,0,0,.86-.65c.26-.22.59-.53,1-.92a1.07,1.07,0,0,1,.73-.22,1.15,1.15,0,0,1,.83.28,1,1,0,0,1,.32.79,2.13,2.13,0,0,1-.36,1.06,4.34,4.34,0,0,1-1.06,1.16,6,6,0,0,1-1.8.92,8,8,0,0,1-2.48.36,6.57,6.57,0,0,1-5-1.83,6.79,6.79,0,0,1-1.79-5,8.23,8.23,0,0,1,.44-2.74,6.2,6.2,0,0,1,1.28-2.17,5.77,5.77,0,0,1,2.08-1.39,7.48,7.48,0,0,1,2.73-.48,6.59,6.59,0,0,1,3.36.82,5.38,5.38,0,0,1,2.09,2.14,5.64,5.64,0,0,1,.69,2.66,1.68,1.68,0,0,1-.72,1.63A4.63,4.63,0,0,1,250.4,448.81Zm-6.52-1.89h6a4.06,4.06,0,0,0-.92-2.56,2.79,2.79,0,0,0-2.11-.85,2.66,2.66,0,0,0-2,.86,4.26,4.26,0,0,0-1,2.55Z" transform="translate(-100.44 -368.46)" style="fill:#8cbdb8"/></g></g><g id="R"><g id="Groupe_15" data-name="Groupe 15"><path id="Tracé_114" data-name="Tracé 114" d="M267.81,451.29a.15.15,0,0,1-.12.16h-1.12l-.1-.07a.17.17,0,0,1,0-.1l-.57-1.41c-.07-.16-.14-.3-.2-.42a1.34,1.34,0,0,0-.22-.31.83.83,0,0,0-.27-.19,1.15,1.15,0,0,0-.37-.06h-.4v2.4a.14.14,0,0,1,0,.09.23.23,0,0,1-.1.07h-1a.18.18,0,0,1-.1-.07.14.14,0,0,1,0-.09v-5.73a.4.4,0,0,1,.11-.31.34.34,0,0,1,.27-.1h2.34a2.7,2.7,0,0,1,.69.18,1.5,1.5,0,0,1,.51.35,1.29,1.29,0,0,1,.33.5,1.89,1.89,0,0,1,.11.67,2.24,2.24,0,0,1-.08.57,1.4,1.4,0,0,1-.24.47,1.45,1.45,0,0,1-.38.36,2.53,2.53,0,0,1-.53.24,1,1,0,0,1,.27.17,1.75,1.75,0,0,1,.24.23,3.45,3.45,0,0,1,.2.32,2.93,2.93,0,0,1,.19.4l.54,1.25.09.27a.46.46,0,0,1-.07.16ZM266.15,447a.9.9,0,0,0-.14-.53.8.8,0,0,0-.46-.3H264.4V448h.66a1.59,1.59,0,0,0,.48-.07,1,1,0,0,0,.34-.19.69.69,0,0,0,.2-.28A.91.91,0,0,0,266.15,447Z" transform="translate(-100.44 -368.46)" style="fill:#8cbdb8"/></g></g><g id="Ellipse_2" data-name="Ellipse 2"><ellipse id="Ellipse_7" data-name="Ellipse 7" cx="164.99" cy="79.5" rx="6" ry="6.5" style="fill:none"/><path id="Tracé_115" data-name="Tracé 115" d="M265.43,454.46a6.52,6.52,0,1,1,6-7c0,.17,0,.35,0,.52A6.27,6.27,0,0,1,265.43,454.46Zm0-12a5.52,5.52,0,1,0,5,6c0-.18,0-.35,0-.52A5.27,5.27,0,0,0,265.43,442.46Z" transform="translate(-100.44 -368.46)" style="fill:#8cbdb8"/></g></g></svg>