<svg id="Calque_1" data-name="Calque 1" xmlns="http://www.w3.org/2000/svg" viewBox="0 0 395 105"><g id="Rectangle_5" data-name="Rectangle 5"><path d="M152,368.46H442a52.49,52.49,0,0,1,52.5,52.5h0a52.5,52.5,0,0,1-52.5,52.5H152A52.51,52.51,0,0,1,99.49,421h0A52.5,52.5,0,0,1,152,368.46Z" transform="translate(-99.49 -368.46)" style="fill:none"/><path d="M442,473.46H152a52.5,52.5,0,0,1,0-105H442a52.5,52.5,0,0,1,0,105Zm-290-95a42.5,42.5,0,0,0,0,85H442a42.5,42.5,0,0,0,0-85Z" transform="translate(-99.49 -368.46)" style="fill:#2d3e4e"/></g><g id="Multisports" style="isolation:isolate"><g style="isolation:isolate"><path d="M153.68,425l-6.88-27.37v29.65a5.4,5.4,0,0,1-1.1,3.69,4,4,0,0,1-5.79,0,5.36,5.36,0,0,1-1.11-3.71v-34c0-1.88.49-3.14,1.46-3.8a7.08,7.08,0,0,1,4-1h2.69a10.34,10.34,0,0,1,3.53.44,2.93,2.93,0,0,1,1.63,1.58,24.72,24.72,0,0,1,1.2,3.72l6.24,23.53,6.24-23.53a24.72,24.72,0,0,1,1.2-3.72,3,3,0,0,1,1.63-1.58,10.34,10.34,0,0,1,3.53-.44h2.69a7.08,7.08,0,0,1,4,1c1,.66,1.46,1.92,1.46,3.8v34a5.35,5.35,0,0,1-1.1,3.69,3.74,3.74,0,0,1-2.94,1.23,3.66,3.66,0,0,1-2.84-1.23,5.35,5.35,0,0,1-1.11-3.69V397.62L165.34,425c-.45,1.77-.81,3.08-1.1,3.91a5.34,5.34,0,0,1-1.57,2.27,4.57,4.57,0,0,1-3.16,1,4.64,4.64,0,0,1-4.22-2.34,9.38,9.38,0,0,1-.92-2.27C154.14,426.75,153.92,425.88,153.68,425Z" transform="translate(-99.49 -368.46)" style="fill:#2d3e4e"/><path d="M209.37,427.68v-1a17.7,17.7,0,0,1-3,3,11.19,11.19,0,0,1-3.46,1.83,14,14,0,0,1-4.28.6,11.1,11.1,0,0,1-5.2-1.2,8.76,8.76,0,0,1-3.56-3.31,14.71,14.71,0,0,1-1.49-7.32V404.45a5.19,5.19,0,0,1,1.08-3.59,3.7,3.7,0,0,1,2.87-1.19,3.81,3.81,0,0,1,2.93,1.2,5.07,5.07,0,0,1,1.12,3.58v12.8a19.89,19.89,0,0,0,.46,4.67,5.66,5.66,0,0,0,1.69,3,4.78,4.78,0,0,0,3.3,1.07,6.7,6.7,0,0,0,3.8-1.2,7,7,0,0,0,2.61-3.13q.68-1.71.68-7.45v-9.72a5.12,5.12,0,0,1,1.11-3.58,3.77,3.77,0,0,1,2.9-1.2,3.7,3.7,0,0,1,2.87,1.19,5.19,5.19,0,0,1,1.08,3.59v23.17a4.91,4.91,0,0,1-1,3.43,3.45,3.45,0,0,1-2.68,1.14,3.5,3.5,0,0,1-2.71-1.18A4.83,4.83,0,0,1,209.37,427.68Z" transform="translate(-99.49 -368.46)" style="fill:#2d3e4e"/><path d="M224.84,427.33V392.64a5.41,5.41,0,0,1,1.07-3.63,3.64,3.64,0,0,1,2.89-1.23,3.78,3.78,0,0,1,2.93,1.21,5.26,5.26,0,0,1,1.11,3.65v34.69a5.21,5.21,0,0,1-1.13,3.65,3.78,3.78,0,0,1-2.91,1.21,3.62,3.62,0,0,1-2.86-1.26A5.33,5.33,0,0,1,224.84,427.33Z" transform="translate(-99.49 -368.46)" style="fill:#2d3e4e"/><path d="M241.54,400.38h.88v-4.81c0-1.29,0-2.3.1-3a4.56,4.56,0,0,1,.57-1.89,3.67,3.67,0,0,1,1.35-1.33,3.77,3.77,0,0,1,2-.52,3.92,3.92,0,0,1,2.75,1.15,3.33,3.33,0,0,1,1,1.86,16.55,16.55,0,0,1,.22,3.12v5.45h2.93a3.72,3.72,0,0,1,2.59.8,2.65,2.65,0,0,1,.89,2.07,2.3,2.3,0,0,1-1.27,2.25,8.25,8.25,0,0,1-3.65.65h-1.49v14.7a23.54,23.54,0,0,0,.13,2.89,3,3,0,0,0,.7,1.64,2.4,2.4,0,0,0,1.86.63,9.68,9.68,0,0,0,1.91-.25,10.37,10.37,0,0,1,1.87-.25,2.41,2.41,0,0,1,1.75.78,2.64,2.64,0,0,1,.77,1.92,3.21,3.21,0,0,1-2.11,3,14.27,14.27,0,0,1-6.06,1,10.44,10.44,0,0,1-5.68-1.26,5.85,5.85,0,0,1-2.54-3.48,23.73,23.73,0,0,1-.6-5.95V406.15h-1a3.83,3.83,0,0,1-2.64-.82,2.67,2.67,0,0,1-.91-2.08,2.61,2.61,0,0,1,1-2.07A4.18,4.18,0,0,1,241.54,400.38Z" transform="translate(-99.49 -368.46)" style="fill:#2d3e4e"/><path d="M266.39,396a4.23,4.23,0,0,1-2.86-1,3.64,3.64,0,0,1-1.19-2.9,3.6,3.6,0,0,1,1.22-2.8,4.09,4.09,0,0,1,2.83-1.1,4.16,4.16,0,0,1,2.75,1,3.55,3.55,0,0,1,1.2,2.9,3.64,3.64,0,0,1-1.17,2.88A4,4,0,0,1,266.39,396Zm3.95,8.26v23.12A5.16,5.16,0,0,1,269.2,431a3.79,3.79,0,0,1-2.9,1.23,3.62,3.62,0,0,1-2.86-1.26,5.33,5.33,0,0,1-1.1-3.6V404.45a5.16,5.16,0,0,1,1.1-3.58,3.7,3.7,0,0,1,2.86-1.2,3.83,3.83,0,0,1,2.9,1.2A4.67,4.67,0,0,1,270.34,404.21Z" transform="translate(-99.49 -368.46)" style="fill:#2d3e4e"/><path d="M304.35,421.73A9.29,9.29,0,0,1,298,431a21.34,21.34,0,0,1-7.66,1.21,18.65,18.65,0,0,1-7.38-1.32,10.62,10.62,0,0,1-4.54-3.29,6.63,6.63,0,0,1-1.47-4,3.11,3.11,0,0,1,.94-2.26,3.24,3.24,0,0,1,2.37-.93,2.79,2.79,0,0,1,1.94.61,6.77,6.77,0,0,1,1.29,1.73,7.69,7.69,0,0,0,7.61,4.25,6.76,6.76,0,0,0,3.94-1.07,3,3,0,0,0,1.54-2.45,3.3,3.3,0,0,0-1.6-3.07,19.55,19.55,0,0,0-5.25-1.85,43.39,43.39,0,0,1-6.73-2.15,11.1,11.1,0,0,1-4.14-3,6.79,6.79,0,0,1-1.56-4.54,8,8,0,0,1,1.44-4.54A9.85,9.85,0,0,1,283,401a16.24,16.24,0,0,1,6.76-1.28,22.15,22.15,0,0,1,5.58.65,13.81,13.81,0,0,1,4.13,1.73,8.57,8.57,0,0,1,2.52,2.4,4.75,4.75,0,0,1,.86,2.58,3,3,0,0,1-.92,2.25,3.64,3.64,0,0,1-2.62.88,3.23,3.23,0,0,1-2.1-.7,14.48,14.48,0,0,1-2-2.11,7.19,7.19,0,0,0-2.13-1.88,6.74,6.74,0,0,0-3.34-.7,6.6,6.6,0,0,0-3.61.92,2.72,2.72,0,0,0-1.43,2.3,2.5,2.5,0,0,0,1.05,2.07,8.64,8.64,0,0,0,2.84,1.33c1.19.35,2.84.78,4.93,1.29a26.37,26.37,0,0,1,6.07,2.17,10.08,10.08,0,0,1,3.58,3A6.59,6.59,0,0,1,304.35,421.73Z" transform="translate(-99.49 -368.46)" style="fill:#2d3e4e"/><path d="M318.5,404.16v1a15.81,15.81,0,0,1,4.69-4.08,11.47,11.47,0,0,1,5.51-1.31,12.77,12.77,0,0,1,6.8,1.91,13.09,13.09,0,0,1,4.9,5.56,19.31,19.31,0,0,1,1.81,8.67,21.3,21.3,0,0,1-1,6.79,15.27,15.27,0,0,1-2.86,5.18,12.38,12.38,0,0,1-4.29,3.22,12.58,12.58,0,0,1-5.32,1.13,11.26,11.26,0,0,1-5.76-1.37,16.58,16.58,0,0,1-4.44-4.05v12c0,3.52-1.27,5.28-3.83,5.28-1.51,0-2.5-.46-3-1.36a8.59,8.59,0,0,1-.73-4V404.21a5,5,0,0,1,1-3.41,3.47,3.47,0,0,1,2.73-1.13,3.62,3.62,0,0,1,2.77,1.16A4.74,4.74,0,0,1,318.5,404.16Zm15.68,11.63a13.78,13.78,0,0,0-1-5.44,8,8,0,0,0-2.68-3.48,6.35,6.35,0,0,0-3.79-1.22,7.1,7.1,0,0,0-5.58,2.61c-1.52,1.74-2.27,4.29-2.27,7.67,0,3.19.75,5.66,2.25,7.43a7.06,7.06,0,0,0,5.6,2.65,6.43,6.43,0,0,0,3.69-1.16,8,8,0,0,0,2.72-3.47A13.64,13.64,0,0,0,334.18,415.79Z" transform="translate(-99.49 -368.46)" style="fill:#2d3e4e"/><path d="M378.56,415.93a18.91,18.91,0,0,1-1.11,6.59,14.59,14.59,0,0,1-3.22,5.19,14.36,14.36,0,0,1-5,3.33,17.83,17.83,0,0,1-6.59,1.15,17.36,17.36,0,0,1-6.54-1.17,14.38,14.38,0,0,1-8.24-8.51,18.69,18.69,0,0,1-1.1-6.58,19.13,19.13,0,0,1,1.11-6.65,14.47,14.47,0,0,1,3.19-5.15,14.07,14.07,0,0,1,5-3.3,19.08,19.08,0,0,1,13.13,0,14.13,14.13,0,0,1,8.27,8.5A18.79,18.79,0,0,1,378.56,415.93Zm-8,0q0-4.89-2.16-7.61a7,7,0,0,0-5.78-2.73,7.15,7.15,0,0,0-4.13,1.22,7.65,7.65,0,0,0-2.76,3.59,14.65,14.65,0,0,0-1,5.53,14.39,14.39,0,0,0,.95,5.48,7.84,7.84,0,0,0,2.72,3.59,7.1,7.1,0,0,0,4.18,1.25,7,7,0,0,0,5.78-2.74C369.82,421.68,370.54,419.16,370.54,415.93Z" transform="translate(-99.49 -368.46)" style="fill:#2d3e4e"/><path d="M392.8,420.65v6.68a5.17,5.17,0,0,1-1.14,3.65,3.8,3.8,0,0,1-2.9,1.21,3.66,3.66,0,0,1-2.84-1.23,5.21,5.21,0,0,1-1.12-3.63V405.06q0-5.38,3.9-5.39a3.24,3.24,0,0,1,2.87,1.26,6.92,6.92,0,0,1,1,3.72,14.18,14.18,0,0,1,2.94-3.72,6.09,6.09,0,0,1,4-1.26,10.29,10.29,0,0,1,4.89,1.26,3.76,3.76,0,0,1,2.38,3.34,3.35,3.35,0,0,1-3.2,3.37,10.07,10.07,0,0,1-2.12-.54,9.92,9.92,0,0,0-3-.54,4.4,4.4,0,0,0-2.88.92,6,6,0,0,0-1.72,2.74,18.77,18.77,0,0,0-.85,4.32Q392.8,417,392.8,420.65Z" transform="translate(-99.49 -368.46)" style="fill:#2d3e4e"/><path d="M412.31,400.38h.88v-4.81c0-1.29,0-2.3.1-3a4.42,4.42,0,0,1,.58-1.89,3.56,3.56,0,0,1,1.34-1.33,3.77,3.77,0,0,1,2-.52,3.92,3.92,0,0,1,2.75,1.15,3.33,3.33,0,0,1,1,1.86,16.55,16.55,0,0,1,.22,3.12v5.45h2.93a3.72,3.72,0,0,1,2.59.8,2.66,2.66,0,0,1,.9,2.07,2.31,2.31,0,0,1-1.28,2.25,8.25,8.25,0,0,1-3.65.65h-1.49v14.7a23.54,23.54,0,0,0,.13,2.89,2.91,2.91,0,0,0,.71,1.64,2.4,2.4,0,0,0,1.86.63,9.69,9.69,0,0,0,1.9-.25,10.46,10.46,0,0,1,1.88-.25,2.41,2.41,0,0,1,1.74.78,2.6,2.6,0,0,1,.77,1.92,3.22,3.22,0,0,1-2.1,3,14.35,14.35,0,0,1-6.07,1,10.46,10.46,0,0,1-5.68-1.26,5.85,5.85,0,0,1-2.54-3.48,23.73,23.73,0,0,1-.6-5.95V406.15h-1.05a3.86,3.86,0,0,1-2.64-.82,2.7,2.7,0,0,1-.91-2.08,2.61,2.61,0,0,1,1-2.07A4.18,4.18,0,0,1,412.31,400.38Z" transform="translate(-99.49 -368.46)" style="fill:#2d3e4e"/><path d="M458.87,421.73a9.31,9.31,0,0,1-6.38,9.25,21.34,21.34,0,0,1-7.66,1.21,18.65,18.65,0,0,1-7.38-1.32,10.68,10.68,0,0,1-4.54-3.29,6.63,6.63,0,0,1-1.47-4,3.11,3.11,0,0,1,.94-2.26,3.24,3.24,0,0,1,2.37-.93,2.79,2.79,0,0,1,1.94.61,6.77,6.77,0,0,1,1.29,1.73,7.69,7.69,0,0,0,7.61,4.25,6.8,6.8,0,0,0,4-1.07,3,3,0,0,0,1.53-2.45,3.31,3.31,0,0,0-1.59-3.07,19.78,19.78,0,0,0-5.26-1.85,43.39,43.39,0,0,1-6.73-2.15,11.18,11.18,0,0,1-4.14-3,6.78,6.78,0,0,1-1.55-4.54,8,8,0,0,1,1.43-4.54,9.85,9.85,0,0,1,4.23-3.41,16.24,16.24,0,0,1,6.76-1.28,22.15,22.15,0,0,1,5.58.65,13.7,13.7,0,0,1,4.13,1.73,8.57,8.57,0,0,1,2.52,2.4,4.67,4.67,0,0,1,.86,2.58,3,3,0,0,1-.92,2.25,3.63,3.63,0,0,1-2.62.88,3.23,3.23,0,0,1-2.1-.7,14,14,0,0,1-2-2.11,7.35,7.35,0,0,0-2.14-1.88,6.74,6.74,0,0,0-3.34-.7,6.6,6.6,0,0,0-3.61.92,2.72,2.72,0,0,0-1.43,2.3,2.5,2.5,0,0,0,1.05,2.07,8.7,8.7,0,0,0,2.85,1.33q1.79.53,4.92,1.29a26.64,26.64,0,0,1,6.08,2.17,10.13,10.13,0,0,1,3.57,3A6.6,6.6,0,0,1,458.87,421.73Z" transform="translate(-99.49 -368.46)" style="fill:#2d3e4e"/></g></g><g id="académie" style="isolation:isolate"><g style="isolation:isolate"><path d="M144.64,452.89a10.55,10.55,0,0,1-2.34,1.4,6.46,6.46,0,0,1-2.54.47,4.78,4.78,0,0,1-2.25-.5,3.8,3.8,0,0,1-1.49-1.37,3.6,3.6,0,0,1-.53-1.89,3.37,3.37,0,0,1,.87-2.33,4.35,4.35,0,0,1,2.38-1.29l1.57-.33c.84-.17,1.56-.33,2.16-.47s1.25-.32,1.95-.52a3.39,3.39,0,0,0-.54-1.93,2.36,2.36,0,0,0-1.94-.62,4.11,4.11,0,0,0-1.91.35,3,3,0,0,0-1.1,1.07,11.3,11.3,0,0,1-.65.93,1.06,1.06,0,0,1-.81.23,1.42,1.42,0,0,1-1-.36,1.19,1.19,0,0,1-.41-.93,2.88,2.88,0,0,1,.62-1.71,4.57,4.57,0,0,1,1.94-1.36,8.74,8.74,0,0,1,3.29-.54,9.2,9.2,0,0,1,3.45.52,3.23,3.23,0,0,1,1.78,1.64,7.28,7.28,0,0,1,.52,3c0,.78,0,1.44,0,2s0,1.15,0,1.82a7,7,0,0,0,.31,2,6.19,6.19,0,0,1,.32,1.31,1.24,1.24,0,0,1-.49.93,1.6,1.6,0,0,1-1.09.42,1.47,1.47,0,0,1-1-.48A6.65,6.65,0,0,1,144.64,452.89Zm-.22-4.83a16.81,16.81,0,0,1-2.13.57c-.94.2-1.58.35-1.94.44a2.55,2.55,0,0,0-1,.55,1.39,1.39,0,0,0-.49,1.14,1.69,1.69,0,0,0,.57,1.29,2.13,2.13,0,0,0,1.5.53,3.92,3.92,0,0,0,1.83-.43A2.9,2.9,0,0,0,144,451a5.07,5.07,0,0,0,.46-2.49Z" transform="translate(-99.49 -368.46)" style="fill:#2d3e4e"/><path d="M163,450.64a2.86,2.86,0,0,1-.37,1.33,4.66,4.66,0,0,1-1.14,1.35,5.84,5.84,0,0,1-1.92,1,8.13,8.13,0,0,1-2.61.39,6.37,6.37,0,0,1-4.82-1.8,6.65,6.65,0,0,1-1.74-4.83,8.07,8.07,0,0,1,.79-3.62,5.71,5.71,0,0,1,2.3-2.44,7.79,7.79,0,0,1,6-.48,6.12,6.12,0,0,1,1.83,1,4.51,4.51,0,0,1,1.15,1.27,2.47,2.47,0,0,1,.4,1.26,1.34,1.34,0,0,1-.45,1,1.49,1.49,0,0,1-1.08.41,1.13,1.13,0,0,1-.69-.21,3.13,3.13,0,0,1-.61-.69,5.14,5.14,0,0,0-1.28-1.39,3.11,3.11,0,0,0-4.07.69,5,5,0,0,0-.9,3.15,5.89,5.89,0,0,0,.23,1.73,3.83,3.83,0,0,0,.67,1.34,2.9,2.9,0,0,0,1.06.85,3.26,3.26,0,0,0,1.37.28,3,3,0,0,0,1.71-.46,4,4,0,0,0,1.27-1.42,3.31,3.31,0,0,1,.66-.88,1.23,1.23,0,0,1,.86-.31,1.29,1.29,0,0,1,1,.46A1.53,1.53,0,0,1,163,450.64Z" transform="translate(-99.49 -368.46)" style="fill:#2d3e4e"/><path d="M174.35,452.89a10.55,10.55,0,0,1-2.34,1.4,6.41,6.41,0,0,1-2.53.47,4.8,4.8,0,0,1-2.26-.5,3.8,3.8,0,0,1-1.49-1.37,3.6,3.6,0,0,1-.53-1.89,3.37,3.37,0,0,1,.87-2.33,4.35,4.35,0,0,1,2.38-1.29l1.58-.33c.83-.17,1.55-.33,2.15-.47s1.25-.32,1.95-.52a3.47,3.47,0,0,0-.53-1.93,2.4,2.4,0,0,0-1.95-.62,4.14,4.14,0,0,0-1.91.35,3.11,3.11,0,0,0-1.1,1.07,11.3,11.3,0,0,1-.65.93,1,1,0,0,1-.81.23,1.42,1.42,0,0,1-1-.36,1.19,1.19,0,0,1-.41-.93,2.88,2.88,0,0,1,.62-1.71,4.54,4.54,0,0,1,2-1.36,8.69,8.69,0,0,1,3.28-.54,9.17,9.17,0,0,1,3.45.52,3.23,3.23,0,0,1,1.78,1.64,7.11,7.11,0,0,1,.52,3c0,.78,0,1.44,0,2s0,1.15,0,1.82a6.61,6.61,0,0,0,.31,2,6.61,6.61,0,0,1,.31,1.31,1.21,1.21,0,0,1-.49.93,1.6,1.6,0,0,1-1.09.42,1.47,1.47,0,0,1-1-.48A7,7,0,0,1,174.35,452.89Zm-.22-4.83a16.81,16.81,0,0,1-2.13.57c-.93.2-1.58.35-1.94.44a2.55,2.55,0,0,0-1,.55,1.39,1.39,0,0,0-.49,1.14,1.69,1.69,0,0,0,.57,1.29,2.15,2.15,0,0,0,1.5.53,3.92,3.92,0,0,0,1.83-.43,2.87,2.87,0,0,0,1.23-1.12,5.09,5.09,0,0,0,.45-2.49Z" transform="translate(-99.49 -368.46)" style="fill:#2d3e4e"/><path d="M189.91,452.86v-.33a8.86,8.86,0,0,1-1.32,1.25,4.91,4.91,0,0,1-1.42.73,5.22,5.22,0,0,1-1.67.25,4.87,4.87,0,0,1-2.21-.5,5.09,5.09,0,0,1-1.76-1.45,6.33,6.33,0,0,1-1.13-2.21,9.26,9.26,0,0,1-.39-2.74,7.13,7.13,0,0,1,1.53-4.87,5,5,0,0,1,4-1.75,5.4,5.4,0,0,1,2.43.49,6.89,6.89,0,0,1,1.93,1.52v-4.92a2.51,2.51,0,0,1,.41-1.55,1.39,1.39,0,0,1,1.17-.52,1.44,1.44,0,0,1,1.16.48,2.17,2.17,0,0,1,.41,1.42v14.7a2.06,2.06,0,0,1-.44,1.43,1.45,1.45,0,0,1-1.13.47,1.43,1.43,0,0,1-1.13-.49A2,2,0,0,1,189.91,452.86ZM183.36,448a5.66,5.66,0,0,0,.42,2.3,3.17,3.17,0,0,0,1.15,1.44,2.86,2.86,0,0,0,1.6.48,2.93,2.93,0,0,0,1.61-.46,3.07,3.07,0,0,0,1.15-1.4,5.65,5.65,0,0,0,.44-2.36,5.5,5.5,0,0,0-.44-2.29,3.34,3.34,0,0,0-1.17-1.47,2.84,2.84,0,0,0-1.61-.5,2.77,2.77,0,0,0-1.64.51,3.44,3.44,0,0,0-1.12,1.49A6,6,0,0,0,183.36,448Z" transform="translate(-99.49 -368.46)" style="fill:#2d3e4e"/><path d="M205.71,448.81h-6.52a4.4,4.4,0,0,0,.46,2,3,3,0,0,0,2.81,1.75,4.11,4.11,0,0,0,1.09-.14,3.76,3.76,0,0,0,1-.44,8.07,8.07,0,0,0,.86-.65c.26-.22.59-.53,1-.92a1.06,1.06,0,0,1,.73-.22,1.19,1.19,0,0,1,.83.28,1,1,0,0,1,.32.79,2.15,2.15,0,0,1-.36,1.06,4.19,4.19,0,0,1-1.06,1.16,6.08,6.08,0,0,1-1.8.92,7.85,7.85,0,0,1-2.48.36,6.59,6.59,0,0,1-5-1.83,6.8,6.8,0,0,1-1.79-5,8.33,8.33,0,0,1,.44-2.74,6.09,6.09,0,0,1,1.28-2.17,5.81,5.81,0,0,1,2.08-1.39,7.45,7.45,0,0,1,2.73-.48,6.61,6.61,0,0,1,3.36.82,5.43,5.43,0,0,1,2.09,2.14,5.61,5.61,0,0,1,.69,2.66,1.67,1.67,0,0,1-.72,1.63A4.58,4.58,0,0,1,205.71,448.81Zm-6.52-1.89h6a4.05,4.05,0,0,0-.92-2.56,2.75,2.75,0,0,0-2.11-.85,2.67,2.67,0,0,0-2,.86A4.26,4.26,0,0,0,199.19,446.92Zm3.42-10.49h1.64q.63,0,.63.18a3.51,3.51,0,0,1-.69.8c-.45.46-.91.9-1.38,1.33a5.75,5.75,0,0,1-1,.77,3.3,3.3,0,0,1-1.49.35c-.35,0-.52-.1-.52-.3a1.78,1.78,0,0,1,.31-.73l.55-1a3.67,3.67,0,0,1,.83-1.14A2,2,0,0,1,202.61,436.43Z" transform="translate(-99.49 -368.46)" style="fill:#2d3e4e"/><path d="M222.35,448.23v4.44a2.25,2.25,0,0,1-.48,1.57,1.62,1.62,0,0,1-1.26.52,1.59,1.59,0,0,1-1.23-.52,2.3,2.3,0,0,1-.46-1.57v-5.31a16.37,16.37,0,0,0-.09-2,2.17,2.17,0,0,0-.46-1.14,1.5,1.5,0,0,0-1.2-.44,2.13,2.13,0,0,0-2.16,1.12,8,8,0,0,0-.51,3.22v4.51a2.29,2.29,0,0,1-.47,1.56,1.72,1.72,0,0,1-2.48,0,2.24,2.24,0,0,1-.48-1.56v-9.54a2.09,2.09,0,0,1,.43-1.43,1.47,1.47,0,0,1,1.14-.48,1.54,1.54,0,0,1,1.14.45,1.71,1.71,0,0,1,.46,1.27v.31a5.75,5.75,0,0,1,1.86-1.52,4.8,4.8,0,0,1,2.19-.49,4.42,4.42,0,0,1,2.16.5,3.86,3.86,0,0,1,1.49,1.51,5.87,5.87,0,0,1,1.81-1.52,4.59,4.59,0,0,1,2.14-.49,4.83,4.83,0,0,1,2.35.54,3.39,3.39,0,0,1,1.48,1.54,7.11,7.11,0,0,1,.43,2.84v6.51a2.25,2.25,0,0,1-.48,1.57,1.62,1.62,0,0,1-1.26.52,1.6,1.6,0,0,1-1.24-.53,2.24,2.24,0,0,1-.48-1.56v-5.61a13.09,13.09,0,0,0-.09-1.72,2.06,2.06,0,0,0-.49-1.09,1.6,1.6,0,0,0-1.23-.43,2.27,2.27,0,0,0-1.25.39,2.68,2.68,0,0,0-.92,1.05A8.43,8.43,0,0,0,222.35,448.23Z" transform="translate(-99.49 -368.46)" style="fill:#2d3e4e"/><path d="M235.07,439.67a1.76,1.76,0,0,1-1.19-.43,1.49,1.49,0,0,1-.5-1.21,1.52,1.52,0,0,1,.51-1.17,1.78,1.78,0,0,1,2.32,0,1.47,1.47,0,0,1,.5,1.21,1.51,1.51,0,0,1-.49,1.2A1.67,1.67,0,0,1,235.07,439.67Zm1.64,3.44v9.63a2.17,2.17,0,0,1-.47,1.51,1.59,1.59,0,0,1-1.21.51,1.49,1.49,0,0,1-1.19-.52,2.19,2.19,0,0,1-.46-1.5v-9.53a2.11,2.11,0,0,1,.46-1.49,1.51,1.51,0,0,1,1.19-.5,1.58,1.58,0,0,1,1.21.5A2,2,0,0,1,236.71,443.11Z" transform="translate(-99.49 -368.46)" style="fill:#2d3e4e"/><path d="M249.46,448.81h-6.52a4.4,4.4,0,0,0,.46,2,3,3,0,0,0,2.81,1.75,4.11,4.11,0,0,0,1.09-.14,3.76,3.76,0,0,0,1-.44,8.07,8.07,0,0,0,.86-.65c.26-.22.59-.53,1-.92a1.06,1.06,0,0,1,.73-.22,1.19,1.19,0,0,1,.83.28,1,1,0,0,1,.32.79,2.15,2.15,0,0,1-.36,1.06,4.19,4.19,0,0,1-1.06,1.16,6.08,6.08,0,0,1-1.8.92,7.85,7.85,0,0,1-2.48.36,6.59,6.59,0,0,1-5-1.83,6.8,6.8,0,0,1-1.79-5,8.33,8.33,0,0,1,.44-2.74,6.09,6.09,0,0,1,1.28-2.17,5.81,5.81,0,0,1,2.08-1.39,7.45,7.45,0,0,1,2.73-.48,6.61,6.61,0,0,1,3.36.82,5.43,5.43,0,0,1,2.09,2.14,5.61,5.61,0,0,1,.69,2.66,1.67,1.67,0,0,1-.72,1.63A4.58,4.58,0,0,1,249.46,448.81Zm-6.52-1.89h6a4.05,4.05,0,0,0-.92-2.56,2.75,2.75,0,0,0-2.11-.85,2.67,2.67,0,0,0-2,.86A4.26,4.26,0,0,0,242.94,446.92Z" transform="translate(-99.49 -368.46)" style="fill:#2d3e4e"/></g></g><g id="R" style="isolation:isolate"><g style="isolation:isolate"><path d="M266.87,451.29a.15.15,0,0,1-.12.16l-.21,0h-.71l-.2,0a.26.26,0,0,1-.1-.07.23.23,0,0,1,0-.1l-.57-1.41c-.07-.16-.14-.3-.2-.42a1.3,1.3,0,0,0-.22-.31.83.83,0,0,0-.27-.19,1.06,1.06,0,0,0-.37-.06h-.4v2.4a.12.12,0,0,1,0,.09.2.2,0,0,1-.1.07l-.2,0-.31,0-.31,0-.2,0a.2.2,0,0,1-.1-.07.12.12,0,0,1,0-.09v-5.73a.39.39,0,0,1,.11-.31.36.36,0,0,1,.27-.1h2.05l.29,0a2.5,2.5,0,0,1,.69.18,1.54,1.54,0,0,1,.51.35,1.32,1.32,0,0,1,.33.5,1.92,1.92,0,0,1,.11.67,2,2,0,0,1-.08.57,1.31,1.31,0,0,1-.24.47,1.45,1.45,0,0,1-.38.36,2.14,2.14,0,0,1-.53.24,1.24,1.24,0,0,1,.27.17,1.7,1.7,0,0,1,.24.23,2.49,2.49,0,0,1,.2.32,3,3,0,0,1,.19.4l.54,1.25a2.76,2.76,0,0,1,.09.27A.45.45,0,0,1,266.87,451.29ZM265.21,447a.89.89,0,0,0-.14-.53.78.78,0,0,0-.46-.3l-.23,0-.34,0h-.58v1.8h.66a1.73,1.73,0,0,0,.48-.07.94.94,0,0,0,.34-.19.69.69,0,0,0,.2-.28A.9.9,0,0,0,265.21,447Z" transform="translate(-99.49 -368.46)" style="fill:#2d3e4e"/></g></g><g id="Ellipse_2" data-name="Ellipse 2"><ellipse cx="165" cy="79.5" rx="6" ry="6.5" style="fill:none"/><path d="M264.49,454.46a6.52,6.52,0,1,1,6-6.5A6.27,6.27,0,0,1,264.49,454.46Zm0-12a5.52,5.52,0,1,0,5,5.5A5.27,5.27,0,0,0,264.49,442.46Z" transform="translate(-99.49 -368.46)" style="fill:#2d3e4e"/></g></svg>