<svg id="Calque_1" data-name="Calque 1" xmlns="http://www.w3.org/2000/svg" viewBox="0 0 418.42 111.23"><g id="Rectangle_5" data-name="Rectangle 5"><path d="M130,197.86H437.17a55.61,55.61,0,0,1,55.61,55.61h0a55.61,55.61,0,0,1-55.61,55.61H130a55.62,55.62,0,0,1-55.62-55.61h0A55.62,55.62,0,0,1,130,197.86Z" transform="translate(-74.36 -197.86)" style="fill:#e8eceb"/><path d="M437.17,309.08H130a55.61,55.61,0,1,1,0-111.22H437.17a55.61,55.61,0,0,1,0,111.22ZM130,208.45a45,45,0,0,0,0,90H437.17a45,45,0,0,0,0-90Z" transform="translate(-74.36 -197.86)" style="fill:#2d3e4e"/></g><g id="Multisports" style="isolation:isolate"><g style="isolation:isolate"><path d="M131.76,257.73l-7.29-29v31.41a5.76,5.76,0,0,1-1.16,3.91,4.27,4.27,0,0,1-6.13,0,5.64,5.64,0,0,1-1.18-3.92v-36c0-2,.52-3.33,1.55-4a7.39,7.39,0,0,1,4.19-1h2.86a11,11,0,0,1,3.74.46,3.14,3.14,0,0,1,1.72,1.68,27,27,0,0,1,1.27,3.94l6.61,24.92,6.61-24.92a27,27,0,0,1,1.27-3.94,3.16,3.16,0,0,1,1.73-1.68,10.87,10.87,0,0,1,3.73-.46h2.86a7.39,7.39,0,0,1,4.19,1c1,.69,1.55,2,1.55,4v36a5.76,5.76,0,0,1-1.16,3.91,4,4,0,0,1-3.12,1.3,3.86,3.86,0,0,1-3-1.3,5.66,5.66,0,0,1-1.18-3.91V228.75l-7.29,29c-.48,1.89-.87,3.27-1.17,4.15a5.65,5.65,0,0,1-1.66,2.4,4.81,4.81,0,0,1-3.35,1.09,4.92,4.92,0,0,1-4.47-2.48,10.58,10.58,0,0,1-1-2.41C132.26,259.6,132,258.69,131.76,257.73Z" transform="translate(-74.36 -197.86)" style="fill:#2d3e4e"/><path d="M190.76,260.59V259.5a18.48,18.48,0,0,1-3.2,3.23,11.63,11.63,0,0,1-3.66,1.94,14.92,14.92,0,0,1-4.53.64,11.72,11.72,0,0,1-5.51-1.28,9.25,9.25,0,0,1-3.77-3.5q-1.58-2.7-1.58-7.76V236a5.45,5.45,0,0,1,1.15-3.8,3.91,3.91,0,0,1,3-1.26,4.06,4.06,0,0,1,3.1,1.27A5.38,5.38,0,0,1,177,236v13.56a20.91,20.91,0,0,0,.5,5,5.94,5.94,0,0,0,1.78,3.14,5.12,5.12,0,0,0,3.49,1.13,7.2,7.2,0,0,0,4-1.27,7.48,7.48,0,0,0,2.76-3.32q.7-1.8.71-7.89V236a5.43,5.43,0,0,1,1.18-3.79,4,4,0,0,1,3.07-1.27,3.93,3.93,0,0,1,3.05,1.26,5.5,5.5,0,0,1,1.14,3.8v24.55a5.22,5.22,0,0,1-1.1,3.63,3.65,3.65,0,0,1-2.84,1.21,3.7,3.7,0,0,1-2.87-1.26A5.1,5.1,0,0,1,190.76,260.59Z" transform="translate(-74.36 -197.86)" style="fill:#2d3e4e"/><path d="M207.15,260.22V223.47a5.66,5.66,0,0,1,1.13-3.84,3.83,3.83,0,0,1,3.05-1.31,4,4,0,0,1,3.11,1.29,5.59,5.59,0,0,1,1.18,3.86v36.75a5.48,5.48,0,0,1-1.2,3.86,4,4,0,0,1-3.09,1.29,3.81,3.81,0,0,1-3-1.34A5.58,5.58,0,0,1,207.15,260.22Z" transform="translate(-74.36 -197.86)" style="fill:#2d3e4e"/><path d="M224.83,231.67h.94v-5.09c0-1.37,0-2.44.1-3.22a4.9,4.9,0,0,1,.61-2,3.8,3.8,0,0,1,1.43-1.41,4.06,4.06,0,0,1,2.08-.54,4.17,4.17,0,0,1,2.91,1.21,3.54,3.54,0,0,1,1.1,2,17.33,17.33,0,0,1,.24,3.3v5.78h3.1a4,4,0,0,1,2.75.85,2.82,2.82,0,0,1,.94,2.19,2.45,2.45,0,0,1-1.35,2.39,8.81,8.81,0,0,1-3.86.68h-1.58v15.58a24.07,24.07,0,0,0,.14,3.06,3.08,3.08,0,0,0,.74,1.73,2.54,2.54,0,0,0,2,.67,11,11,0,0,0,2-.26,10.25,10.25,0,0,1,2-.27,2.55,2.55,0,0,1,1.84.83,2.74,2.74,0,0,1,.83,2,3.4,3.4,0,0,1-2.24,3.13,15,15,0,0,1-6.42,1.09,11.07,11.07,0,0,1-6-1.34,6.18,6.18,0,0,1-2.69-3.69,25.26,25.26,0,0,1-.63-6.3V237.78h-1.12a4.07,4.07,0,0,1-2.8-.87,2.84,2.84,0,0,1-1-2.2,2.75,2.75,0,0,1,1-2.19A4.41,4.41,0,0,1,224.83,231.67Z" transform="translate(-74.36 -197.86)" style="fill:#2d3e4e"/><path d="M251.15,227a4.42,4.42,0,0,1-3-1.09,4.2,4.2,0,0,1,0-6,4.29,4.29,0,0,1,3-1.17,4.47,4.47,0,0,1,2.92,1.06,3.75,3.75,0,0,1,1.27,3.07,3.87,3.87,0,0,1-1.24,3.06A4.32,4.32,0,0,1,251.15,227Zm4.19,8.75v24.49a5.47,5.47,0,0,1-1.21,3.85,4,4,0,0,1-3.07,1.3,3.85,3.85,0,0,1-3-1.34,5.63,5.63,0,0,1-1.16-3.81V236a5.47,5.47,0,0,1,1.16-3.79,4,4,0,0,1,3-1.27,4.09,4.09,0,0,1,3.07,1.27A4.92,4.92,0,0,1,255.34,235.73Z" transform="translate(-74.36 -197.86)" style="fill:#2d3e4e"/><path d="M291.37,254.29a9.82,9.82,0,0,1-6.75,9.79,22.54,22.54,0,0,1-8.11,1.29,19.77,19.77,0,0,1-7.82-1.4,11.27,11.27,0,0,1-4.81-3.49,7,7,0,0,1-1.56-4.2,3.23,3.23,0,0,1,1-2.39,3.38,3.38,0,0,1,2.51-1,2.92,2.92,0,0,1,2.05.66,7,7,0,0,1,1.36,1.83,9.33,9.33,0,0,0,3.12,3.38,9.45,9.45,0,0,0,4.95,1.12,7.14,7.14,0,0,0,4.18-1.14,3.2,3.2,0,0,0,1.63-2.59,3.54,3.54,0,0,0-1.7-3.26,20.87,20.87,0,0,0-5.57-1.95,47.78,47.78,0,0,1-7.12-2.28,11.84,11.84,0,0,1-4.39-3.15,7.22,7.22,0,0,1-1.64-4.81,8.43,8.43,0,0,1,1.52-4.81,10.38,10.38,0,0,1,4.48-3.62,17.18,17.18,0,0,1,7.15-1.35,23.78,23.78,0,0,1,5.92.68,14.82,14.82,0,0,1,4.37,1.84,9,9,0,0,1,2.67,2.54,5,5,0,0,1,.92,2.73,3.17,3.17,0,0,1-1,2.39A3.88,3.88,0,0,1,286,242a3.44,3.44,0,0,1-2.22-.74,14.27,14.27,0,0,1-2.09-2.24,7.64,7.64,0,0,0-2.27-2,7.11,7.11,0,0,0-3.54-.75,6.91,6.91,0,0,0-3.81,1,2.83,2.83,0,0,0-1.52,2.44,2.64,2.64,0,0,0,1.11,2.18,9.27,9.27,0,0,0,3,1.41c1.26.38,3,.83,5.22,1.37a28,28,0,0,1,6.44,2.3,10.75,10.75,0,0,1,3.78,3.15A7,7,0,0,1,291.37,254.29Z" transform="translate(-74.36 -197.86)" style="fill:#2d3e4e"/><path d="M306.36,235.67v1a16.89,16.89,0,0,1,5-4.33,12.13,12.13,0,0,1,5.83-1.38,13.54,13.54,0,0,1,7.2,2,14,14,0,0,1,5.2,5.9,20.61,20.61,0,0,1,1.91,9.18,22.31,22.31,0,0,1-1.11,7.19,16.1,16.1,0,0,1-3,5.49,13.17,13.17,0,0,1-4.55,3.41,13.36,13.36,0,0,1-5.63,1.2,11.85,11.85,0,0,1-6.1-1.46,17.49,17.49,0,0,1-4.7-4.28v12.72q0,5.59-4.07,5.59c-1.59,0-2.64-.48-3.16-1.45a9,9,0,0,1-.78-4.2V235.73a5.28,5.28,0,0,1,1.06-3.61,3.63,3.63,0,0,1,2.88-1.2,3.83,3.83,0,0,1,2.94,1.23A5,5,0,0,1,306.36,235.67ZM323,248a14.76,14.76,0,0,0-1-5.76,8.44,8.44,0,0,0-2.84-3.69,6.78,6.78,0,0,0-4-1.29,7.53,7.53,0,0,0-5.91,2.76q-2.42,2.78-2.41,8.14,0,5.06,2.39,7.86a7.47,7.47,0,0,0,5.93,2.81A6.85,6.85,0,0,0,319,257.6a8.53,8.53,0,0,0,2.89-3.68A14.68,14.68,0,0,0,323,248Z" transform="translate(-74.36 -197.86)" style="fill:#2d3e4e"/><path d="M370,248.15a19.94,19.94,0,0,1-1.18,7,15.45,15.45,0,0,1-3.41,5.49,15,15,0,0,1-5.34,3.52,18.83,18.83,0,0,1-7,1.23,18.43,18.43,0,0,1-6.92-1.24,15.28,15.28,0,0,1-8.74-9,19.85,19.85,0,0,1-1.16-7,20.37,20.37,0,0,1,1.17-7.05,15.38,15.38,0,0,1,3.39-5.46,14.75,14.75,0,0,1,5.34-3.49,18.73,18.73,0,0,1,6.92-1.23,19,19,0,0,1,7,1.24,15,15,0,0,1,8.77,9A20.26,20.26,0,0,1,370,248.15Zm-8.5,0q0-5.19-2.29-8.07a7.38,7.38,0,0,0-6.12-2.89,7.58,7.58,0,0,0-4.38,1.29,8.21,8.21,0,0,0-2.92,3.8,15.55,15.55,0,0,0-1,5.87,15.22,15.22,0,0,0,1,5.8,8.33,8.33,0,0,0,2.88,3.8,7.5,7.5,0,0,0,4.43,1.32,7.39,7.39,0,0,0,6.12-2.9Q361.49,253.26,361.48,248.15Z" transform="translate(-74.36 -197.86)" style="fill:#2d3e4e"/><path d="M385.06,253.14v7.08a5.43,5.43,0,0,1-1.21,3.86,4,4,0,0,1-3.07,1.29,3.86,3.86,0,0,1-3-1.3,5.56,5.56,0,0,1-1.18-3.85V236.63c0-3.8,1.37-5.71,4.13-5.71a3.45,3.45,0,0,1,3,1.34,7.34,7.34,0,0,1,1,3.94,14.83,14.83,0,0,1,3.12-3.94,6.46,6.46,0,0,1,4.27-1.34,10.93,10.93,0,0,1,5.18,1.34c1.68.89,2.51,2.07,2.51,3.53a3.33,3.33,0,0,1-1.07,2.56,3.28,3.28,0,0,1-2.31,1,10.73,10.73,0,0,1-2.25-.57,10.58,10.58,0,0,0-3.15-.58,4.62,4.62,0,0,0-3,1,6.21,6.21,0,0,0-1.83,2.9,20.29,20.29,0,0,0-.9,4.58Q385.05,249.33,385.06,253.14Z" transform="translate(-74.36 -197.86)" style="fill:#2d3e4e"/><path d="M405.73,231.67h.93v-5.09c0-1.37,0-2.44.11-3.22a4.61,4.61,0,0,1,.61-2A3.77,3.77,0,0,1,408.8,220a4.08,4.08,0,0,1,2.08-.54,4.17,4.17,0,0,1,2.92,1.21,3.54,3.54,0,0,1,1.1,2,17.48,17.48,0,0,1,.23,3.3v5.78h3.11a4,4,0,0,1,2.74.85,2.82,2.82,0,0,1,.95,2.19,2.45,2.45,0,0,1-1.35,2.39,8.84,8.84,0,0,1-3.86.68h-1.59v15.58a26.11,26.11,0,0,0,.14,3.06,3.09,3.09,0,0,0,.75,1.73,2.52,2.52,0,0,0,2,.67,11.08,11.08,0,0,0,2-.26,10.17,10.17,0,0,1,2-.27,2.57,2.57,0,0,1,1.85.83,2.73,2.73,0,0,1,.82,2,3.39,3.39,0,0,1-2.23,3.13,15,15,0,0,1-6.43,1.09,11.09,11.09,0,0,1-6-1.34,6.16,6.16,0,0,1-2.68-3.69,24.73,24.73,0,0,1-.64-6.3V237.78h-1.12a4,4,0,0,1-2.79-.87,2.84,2.84,0,0,1-1-2.2,2.72,2.72,0,0,1,1-2.19A4.41,4.41,0,0,1,405.73,231.67Z" transform="translate(-74.36 -197.86)" style="fill:#2d3e4e"/><path d="M455,254.29a9.82,9.82,0,0,1-6.75,9.79,22.54,22.54,0,0,1-8.11,1.29,19.8,19.8,0,0,1-7.82-1.4,11.27,11.27,0,0,1-4.81-3.49,7,7,0,0,1-1.56-4.2,3.27,3.27,0,0,1,1-2.39,3.38,3.38,0,0,1,2.51-1,2.92,2.92,0,0,1,2.05.66,7,7,0,0,1,1.37,1.83,9.23,9.23,0,0,0,3.11,3.38,9.45,9.45,0,0,0,5,1.12,7.14,7.14,0,0,0,4.18-1.14,3.2,3.2,0,0,0,1.63-2.59,3.55,3.55,0,0,0-1.69-3.26,21.14,21.14,0,0,0-5.57-1.95,47.57,47.57,0,0,1-7.13-2.28,11.84,11.84,0,0,1-4.39-3.15,7.27,7.27,0,0,1-1.64-4.81,8.43,8.43,0,0,1,1.52-4.81,10.44,10.44,0,0,1,4.48-3.62,17.2,17.2,0,0,1,7.16-1.35,23.76,23.76,0,0,1,5.91.68,14.71,14.71,0,0,1,4.37,1.84,9,9,0,0,1,2.67,2.54,5,5,0,0,1,.92,2.73,3.17,3.17,0,0,1-1,2.39,3.88,3.88,0,0,1-2.78.93,3.44,3.44,0,0,1-2.22-.74,14.27,14.27,0,0,1-2.09-2.24,7.64,7.64,0,0,0-2.27-2,7.09,7.09,0,0,0-3.53-.75,6.92,6.92,0,0,0-3.82,1,2.83,2.83,0,0,0-1.52,2.44,2.64,2.64,0,0,0,1.11,2.18,9.27,9.27,0,0,0,3,1.41c1.27.38,3,.83,5.22,1.37A27.8,27.8,0,0,1,450,247a10.66,10.66,0,0,1,3.78,3.15A7,7,0,0,1,455,254.29Z" transform="translate(-74.36 -197.86)" style="fill:#2d3e4e"/></g></g><g id="académie" style="isolation:isolate"><g style="isolation:isolate"><path d="M122.18,287.29a11,11,0,0,1-2.47,1.49,7,7,0,0,1-2.69.5,5,5,0,0,1-2.38-.54,3.86,3.86,0,0,1-1.59-1.45,3.78,3.78,0,0,1-.55-2,3.52,3.52,0,0,1,.92-2.47,4.56,4.56,0,0,1,2.52-1.37c.22-.06.78-.17,1.67-.35s1.64-.35,2.28-.5,1.32-.33,2.06-.55a3.69,3.69,0,0,0-.56-2.05,2.53,2.53,0,0,0-2.06-.65,4.32,4.32,0,0,0-2,.37,3.29,3.29,0,0,0-1.16,1.13,11.87,11.87,0,0,1-.69,1,1.12,1.12,0,0,1-.86.24,1.5,1.5,0,0,1-1-.39,1.26,1.26,0,0,1-.43-1,3,3,0,0,1,.66-1.81,4.72,4.72,0,0,1,2.06-1.45,9.25,9.25,0,0,1,3.48-.57,9.69,9.69,0,0,1,3.65.55,3.45,3.45,0,0,1,1.89,1.74,7.67,7.67,0,0,1,.55,3.15c0,.83,0,1.53,0,2.11s0,1.22,0,1.93a7.08,7.08,0,0,0,.33,2.07,6.64,6.64,0,0,1,.33,1.39,1.28,1.28,0,0,1-.51,1,1.71,1.71,0,0,1-1.16.45,1.55,1.55,0,0,1-1.07-.51A7.34,7.34,0,0,1,122.18,287.29Zm-.23-5.11a17.63,17.63,0,0,1-2.26.6c-1,.21-1.67.37-2,.47a2.72,2.72,0,0,0-1.08.58A1.48,1.48,0,0,0,116,285a1.77,1.77,0,0,0,.61,1.36,2.21,2.21,0,0,0,1.59.57,4.19,4.19,0,0,0,1.93-.46,3,3,0,0,0,1.3-1.19,5.35,5.35,0,0,0,.48-2.63Z" transform="translate(-74.36 -197.86)" style="fill:#2d3e4e"/><path d="M141.66,284.91a3,3,0,0,1-.4,1.41,4.74,4.74,0,0,1-1.2,1.43,6.36,6.36,0,0,1-2,1.09,8.51,8.51,0,0,1-2.76.41,6.76,6.76,0,0,1-5.11-1.9,7,7,0,0,1-1.84-5.12,8.41,8.41,0,0,1,.84-3.84,6.06,6.06,0,0,1,2.43-2.58,8.29,8.29,0,0,1,6.32-.51,6.5,6.5,0,0,1,1.94,1,4.92,4.92,0,0,1,1.22,1.35,2.67,2.67,0,0,1,.42,1.34,1.39,1.39,0,0,1-.48,1.07,1.61,1.61,0,0,1-1.14.44,1.16,1.16,0,0,1-.73-.23,3.26,3.26,0,0,1-.65-.73,5.59,5.59,0,0,0-1.36-1.47,3.32,3.32,0,0,0-4.31.73,5.26,5.26,0,0,0-.95,3.34,6.59,6.59,0,0,0,.24,1.83,4,4,0,0,0,.71,1.42,3,3,0,0,0,1.13.89,3.31,3.31,0,0,0,1.45.31,3.22,3.22,0,0,0,1.81-.49,4.31,4.31,0,0,0,1.34-1.5,3.42,3.42,0,0,1,.7-.93,1.29,1.29,0,0,1,.92-.34,1.34,1.34,0,0,1,1.07.49A1.61,1.61,0,0,1,141.66,284.91Z" transform="translate(-74.36 -197.86)" style="fill:#2d3e4e"/><path d="M153.66,287.29a11.08,11.08,0,0,1-2.48,1.49,7,7,0,0,1-2.68.5,5.07,5.07,0,0,1-2.39-.54,3.9,3.9,0,0,1-1.58-1.45,3.79,3.79,0,0,1-.56-2,3.57,3.57,0,0,1,.92-2.47,4.56,4.56,0,0,1,2.52-1.37c.22-.06.78-.17,1.67-.35s1.65-.35,2.28-.5,1.32-.33,2.06-.55a3.69,3.69,0,0,0-.56-2.05,2.53,2.53,0,0,0-2.06-.65,4.35,4.35,0,0,0-2,.37,3.29,3.29,0,0,0-1.16,1.13c-.32.5-.55.83-.68,1a1.13,1.13,0,0,1-.86.24,1.49,1.49,0,0,1-1-.39,1.24,1.24,0,0,1-.44-1,3,3,0,0,1,.66-1.81,4.72,4.72,0,0,1,2.06-1.45,9.25,9.25,0,0,1,3.48-.57,9.79,9.79,0,0,1,3.66.55,3.43,3.43,0,0,1,1.88,1.74,7.51,7.51,0,0,1,.55,3.15c0,.83,0,1.53,0,2.11s0,1.22,0,1.93a7.08,7.08,0,0,0,.33,2.07,6.64,6.64,0,0,1,.33,1.39,1.28,1.28,0,0,1-.51,1,1.69,1.69,0,0,1-1.16.45,1.55,1.55,0,0,1-1.07-.51A7.34,7.34,0,0,1,153.66,287.29Zm-.24-5.11a17.39,17.39,0,0,1-2.25.6c-1,.21-1.67.37-2,.47a2.82,2.82,0,0,0-1.09.58,1.51,1.51,0,0,0-.52,1.21,1.8,1.8,0,0,0,.61,1.36,2.25,2.25,0,0,0,1.59.57,4.27,4.27,0,0,0,1.94-.46,3,3,0,0,0,1.29-1.19,5.35,5.35,0,0,0,.48-2.63Z" transform="translate(-74.36 -197.86)" style="fill:#2d3e4e"/><path d="M170.14,287.26v-.35a8.55,8.55,0,0,1-1.4,1.33,5.36,5.36,0,0,1-1.5.78,5.85,5.85,0,0,1-1.76.26,5.17,5.17,0,0,1-2.35-.54,5.47,5.47,0,0,1-1.87-1.53,6.82,6.82,0,0,1-1.2-2.34,10.08,10.08,0,0,1-.4-2.91,7.56,7.56,0,0,1,1.61-5.16,5.4,5.4,0,0,1,4.26-1.85,5.71,5.71,0,0,1,2.57.53,7,7,0,0,1,2,1.61v-5.21a2.64,2.64,0,0,1,.44-1.65,1.46,1.46,0,0,1,1.23-.55,1.54,1.54,0,0,1,1.24.51,2.31,2.31,0,0,1,.43,1.5v15.57a2.18,2.18,0,0,1-.47,1.52,1.67,1.67,0,0,1-2.4,0A2.19,2.19,0,0,1,170.14,287.26Zm-6.94-5.18a6,6,0,0,0,.45,2.44,3.35,3.35,0,0,0,1.22,1.52,3,3,0,0,0,1.69.51,3.14,3.14,0,0,0,1.7-.48,3.42,3.42,0,0,0,1.23-1.49,5.94,5.94,0,0,0,.46-2.5,5.82,5.82,0,0,0-.46-2.43,3.73,3.73,0,0,0-1.24-1.55,3,3,0,0,0-3.45,0,3.57,3.57,0,0,0-1.18,1.58A6.3,6.3,0,0,0,163.2,282.08Z" transform="translate(-74.36 -197.86)" style="fill:#2d3e4e"/><path d="M186.88,283H180a4.63,4.63,0,0,0,.49,2.12,3.25,3.25,0,0,0,3,1.85,4.16,4.16,0,0,0,1.15-.15,3.6,3.6,0,0,0,1-.47,7,7,0,0,0,.9-.67c.28-.25.64-.57,1.08-1a1.18,1.18,0,0,1,.77-.23,1.27,1.27,0,0,1,.88.3,1.05,1.05,0,0,1,.34.84,2.32,2.32,0,0,1-.38,1.12,4.55,4.55,0,0,1-1.13,1.23,6.5,6.5,0,0,1-1.9,1,8.13,8.13,0,0,1-2.63.39,7.05,7.05,0,0,1-5.29-1.94,7.21,7.21,0,0,1-1.89-5.26,8.83,8.83,0,0,1,.47-2.91,6.34,6.34,0,0,1,1.36-2.29,5.8,5.8,0,0,1,2.19-1.47,7.92,7.92,0,0,1,2.9-.51,6.89,6.89,0,0,1,3.55.87,5.8,5.8,0,0,1,2.22,2.26,5.93,5.93,0,0,1,.73,2.82,1.77,1.77,0,0,1-.76,1.73A4.78,4.78,0,0,1,186.88,283ZM180,281h6.4a4.28,4.28,0,0,0-1-2.71,2.9,2.9,0,0,0-2.23-.9,2.8,2.8,0,0,0-2.16.91A4.51,4.51,0,0,0,180,281Zm3.62-11.11h1.75c.44,0,.66.06.66.19a3.92,3.92,0,0,1-.73.84c-.48.49-1,1-1.46,1.41a6.3,6.3,0,0,1-1,.82,3.43,3.43,0,0,1-1.58.37c-.37,0-.55-.11-.55-.32a1.91,1.91,0,0,1,.33-.77l.58-1.08a3.57,3.57,0,0,1,.88-1.2A2,2,0,0,1,183.59,269.86Z" transform="translate(-74.36 -197.86)" style="fill:#2d3e4e"/><path d="M204.5,282.36v4.7a2.42,2.42,0,0,1-.5,1.66,1.73,1.73,0,0,1-1.34.56,1.69,1.69,0,0,1-1.3-.56,2.42,2.42,0,0,1-.49-1.66v-5.63a18.14,18.14,0,0,0-.09-2.07,2.25,2.25,0,0,0-.5-1.21,1.57,1.57,0,0,0-1.26-.47,2.27,2.27,0,0,0-2.29,1.19,8.5,8.5,0,0,0-.54,3.41v4.78a2.46,2.46,0,0,1-.5,1.66,1.68,1.68,0,0,1-1.31.56,1.71,1.71,0,0,1-1.32-.56,2.41,2.41,0,0,1-.51-1.66V277a2.21,2.21,0,0,1,.46-1.52,1.56,1.56,0,0,1,1.21-.51,1.65,1.65,0,0,1,1.21.48,1.82,1.82,0,0,1,.48,1.34v.34a6.08,6.08,0,0,1,2-1.62,5.25,5.25,0,0,1,2.33-.52,4.72,4.72,0,0,1,2.29.53,4.19,4.19,0,0,1,1.57,1.61,6.16,6.16,0,0,1,1.92-1.61,4.86,4.86,0,0,1,2.26-.53,5.16,5.16,0,0,1,2.5.57,3.62,3.62,0,0,1,1.56,1.63,7.5,7.5,0,0,1,.45,3v6.9a2.42,2.42,0,0,1-.5,1.66,1.85,1.85,0,0,1-2.65,0,2.41,2.41,0,0,1-.51-1.66v-5.94a14.49,14.49,0,0,0-.09-1.82,2.08,2.08,0,0,0-.53-1.15,1.66,1.66,0,0,0-1.29-.47,2.35,2.35,0,0,0-1.33.42,2.76,2.76,0,0,0-1,1.11A8.73,8.73,0,0,0,204.5,282.36Z" transform="translate(-74.36 -197.86)" style="fill:#2d3e4e"/><path d="M218,273.28a1.87,1.87,0,0,1-1.26-.45,1.6,1.6,0,0,1-.52-1.28,1.57,1.57,0,0,1,.54-1.23,1.75,1.75,0,0,1,1.24-.49,1.87,1.87,0,0,1,1.22.44,1.57,1.57,0,0,1,.53,1.28,1.61,1.61,0,0,1-.52,1.28A1.79,1.79,0,0,1,218,273.28Zm1.75,3.65v10.2a2.29,2.29,0,0,1-.51,1.61,1.66,1.66,0,0,1-1.28.54,1.62,1.62,0,0,1-1.26-.56,2.36,2.36,0,0,1-.48-1.59V277a2.27,2.27,0,0,1,.48-1.57,1.63,1.63,0,0,1,1.26-.53,1.65,1.65,0,0,1,1.28.53A2,2,0,0,1,219.72,276.93Z" transform="translate(-74.36 -197.86)" style="fill:#2d3e4e"/><path d="M233.22,283h-6.91a4.63,4.63,0,0,0,.49,2.12,3.25,3.25,0,0,0,3,1.85,4.23,4.23,0,0,0,1.16-.15,3.55,3.55,0,0,0,1-.47,7.92,7.92,0,0,0,.91-.67c.27-.25.63-.57,1.07-1a1.19,1.19,0,0,1,.78-.23,1.29,1.29,0,0,1,.88.3,1.08,1.08,0,0,1,.33.84,2.29,2.29,0,0,1-.37,1.12,4.72,4.72,0,0,1-1.13,1.23,6.57,6.57,0,0,1-1.91,1,8.13,8.13,0,0,1-2.63.39,7.07,7.07,0,0,1-5.29-1.94,7.25,7.25,0,0,1-1.88-5.26,8.83,8.83,0,0,1,.46-2.91,6.34,6.34,0,0,1,1.36-2.29,5.84,5.84,0,0,1,2.2-1.47,7.86,7.86,0,0,1,2.89-.51,6.87,6.87,0,0,1,3.55.87,5.8,5.8,0,0,1,2.22,2.26,5.94,5.94,0,0,1,.74,2.82,1.79,1.79,0,0,1-.76,1.73A4.83,4.83,0,0,1,233.22,283Zm-6.91-2h6.4a4.28,4.28,0,0,0-1-2.71,2.93,2.93,0,0,0-2.23-.9,2.83,2.83,0,0,0-2.17.91A4.58,4.58,0,0,0,226.31,281Z" transform="translate(-74.36 -197.86)" style="fill:#2d3e4e"/></g></g><g id="R" style="isolation:isolate"><g style="isolation:isolate"><path d="M251.66,285.6a.3.3,0,0,1,0,.1.16.16,0,0,1-.1.06,1,1,0,0,1-.23,0h-.75a.87.87,0,0,1-.21,0,.26.26,0,0,1-.1-.07.37.37,0,0,1-.05-.11l-.6-1.49-.21-.45a1.4,1.4,0,0,0-.24-.33.72.72,0,0,0-.29-.2.92.92,0,0,0-.38-.07h-.42v2.55a.18.18,0,0,1,0,.1.23.23,0,0,1-.11.06.87.87,0,0,1-.21,0l-.33,0-.33,0-.2,0a.19.19,0,0,1-.11-.06.17.17,0,0,1,0-.1v-6.07a.39.39,0,0,1,.11-.33.43.43,0,0,1,.29-.1h2.17l.31,0a2.9,2.9,0,0,1,.72.2,1.64,1.64,0,0,1,.55.36,1.53,1.53,0,0,1,.35.54,2.14,2.14,0,0,1,.11.7,1.92,1.92,0,0,1-.08.61,1.67,1.67,0,0,1-.25.5,1.87,1.87,0,0,1-.41.38,2.8,2.8,0,0,1-.55.26,1.17,1.17,0,0,1,.28.17,1.48,1.48,0,0,1,.25.25,3.35,3.35,0,0,1,.22.34l.2.42.56,1.32.11.29A1.15,1.15,0,0,1,251.66,285.6Zm-1.75-4.54a1,1,0,0,0-.15-.56.83.83,0,0,0-.49-.32l-.24,0h-1V282h.69a1.61,1.61,0,0,0,.51-.07,1,1,0,0,0,.36-.19.81.81,0,0,0,.21-.31A.93.93,0,0,0,249.91,281.06Z" transform="translate(-74.36 -197.86)" style="fill:#2d3e4e"/></g></g><g id="Ellipse_2" data-name="Ellipse 2"><ellipse cx="174.78" cy="84.21" rx="6.36" ry="6.89" style="fill:none"/><ellipse cx="174.78" cy="84.21" rx="5.83" ry="6.36" style="fill:none;stroke:#2d3e4e"/></g></svg>