<svg id="Calque_1" data-name="Calque 1" xmlns="http://www.w3.org/2000/svg" viewBox="0 0 70 70"><path id="Icon_awesome-facebook-square" data-name="Icon awesome-facebook-square" d="M325.44,386h-55a7.5,7.5,0,0,0-7.5,7.5v55a7.5,7.5,0,0,0,7.5,7.5h21.44v-23.8H282V421h9.84v-8.54c0-9.71,5.78-15.07,14.64-15.07a59.79,59.79,0,0,1,8.67.75v9.53h-4.88c-4.81,0-6.32,3-6.32,6.06V421h10.75L313,432.16h-9V456h21.45a7.5,7.5,0,0,0,7.5-7.5h0v-55A7.5,7.5,0,0,0,325.44,386Z" transform="translate(-262.94 -385.96)" style="fill:#8cbdb8"/></svg>