<svg id="Calque_1" data-name="Calque 1" xmlns="http://www.w3.org/2000/svg" viewBox="0 0 70 69.98"><path id="Icon_awesome-instagram" data-name="Icon awesome-instagram" d="M297.94,403a17.92,17.92,0,1,0,.06,0Zm0,29.61A11.67,11.67,0,1,1,309.61,421,11.67,11.67,0,0,1,297.94,432.63Zm22.87-30.35a4.19,4.19,0,1,1-4.19-4.18,4.2,4.2,0,0,1,4.19,4.18Zm11.88,4.25c-.26-5.61-1.55-10.57-5.65-14.66s-9.06-5.38-14.67-5.66c-5.77-.32-23.1-.32-28.87,0-5.59.27-10.56,1.55-14.66,5.64s-5.38,9.06-5.66,14.66c-.32,5.78-.32,23.1,0,28.88.27,5.61,1.55,10.57,5.66,14.66s9.05,5.38,14.66,5.66c5.78.32,23.1.32,28.88,0,5.6-.27,10.56-1.55,14.66-5.66s5.37-9.05,5.66-14.66c.32-5.78.32-23.08,0-28.86Zm-7.46,35.06a11.81,11.81,0,0,1-6.66,6.65c-4.6,1.83-15.53,1.41-20.63,1.41s-16,.4-20.63-1.41a11.82,11.82,0,0,1-6.65-6.65c-1.82-4.61-1.4-15.54-1.4-20.63s-.41-16,1.4-20.63a11.81,11.81,0,0,1,6.66-6.65c4.6-1.83,15.53-1.41,20.62-1.41s16-.4,20.63,1.41a11.81,11.81,0,0,1,6.66,6.65c1.82,4.61,1.4,15.54,1.4,20.63S327.05,437,325.23,441.59Z" transform="translate(-262.94 -385.97)" style="fill:#e8eceb"/></svg>