<svg id="Calque_1" data-name="Calque 1" xmlns="http://www.w3.org/2000/svg" viewBox="0 0 70 70"><path id="Icon_awesome-twitter-square" data-name="Icon awesome-twitter-square" d="M325.44,386h-55a7.5,7.5,0,0,0-7.5,7.5v55a7.5,7.5,0,0,0,7.5,7.5h55a7.5,7.5,0,0,0,7.5-7.5h0v-55A7.5,7.5,0,0,0,325.44,386Zm-7.64,24.81c0,.44,0,.89,0,1.33,0,13.55-10.31,29.16-29.16,29.16a29.05,29.05,0,0,1-15.73-4.6,22.57,22.57,0,0,0,2.47.13,20.58,20.58,0,0,0,12.72-4.38,10.27,10.27,0,0,1-9.58-7.11,10.91,10.91,0,0,0,4.62-.19,10.26,10.26,0,0,1-8.2-10.06v-.12a10.33,10.33,0,0,0,4.63,1.3,10.29,10.29,0,0,1-3.17-13.71,29.1,29.1,0,0,0,21.12,10.72A10.27,10.27,0,0,1,315,403.88a19.88,19.88,0,0,0,6.5-2.47,10.16,10.16,0,0,1-4.5,5.64,20.22,20.22,0,0,0,5.91-1.59A21.61,21.61,0,0,1,317.8,410.77Z" transform="translate(-262.94 -385.96)" style="fill:#e09e4f"/></svg>